<?xml version="1.0"?>
<!--Icons from directory ""-->
<svg xmlns="http://www.w3.org/2000/svg" width="180" height="1914" viewBox="0 0 180 1914"><svg width="32" height="32" id="b-fb" y="0"><path fill="#3b5998" d="M16 0c8.837 0 16 7.164 16 16 0 8.837-7.163 16-16 16S0 24.837 0 16C0 7.164 7.163 0 16 0z"/><path fill="#fff" d="M17.948 11.015h2.062V7.969h-2.424v.011c-2.937.104-3.539 1.755-3.592 3.489h-.006v1.521h-2v2.983h2v7.996h3.014v-7.996h2.469l.477-2.983h-2.945v-.919c0-.586.39-1.056.945-1.056z"/></svg><svg width="45" height="45" id="b-in" y="32"><path d="M22.5 0C34.925 0 45 10.074 45 22.5S34.926 45 22.5 45C10.075 45 0 34.926 0 22.5 0 10.075 10.073 0 22.5 0z" fill="url(#b-in-paint0_linear)"/><path d="M30.265 9.84H14.733a4.898 4.898 0 0 0-4.892 4.893v15.534a4.898 4.898 0 0 0 4.892 4.892h15.534a4.898 4.898 0 0 0 4.892-4.892V14.733a4.899 4.899 0 0 0-4.894-4.892zm1.541 2.832l.555-.002v4.202l-4.233.014-.014-4.202 3.692-.012zM22.5 18.264c3.511 0 4.236 3.296 4.236 4.237a4.242 4.242 0 0 1-4.236 4.234 4.24 4.24 0 0 1-4.236-4.234c-.001-.94.725-4.237 4.236-4.237zm9.884 11.696a2.428 2.428 0 0 1-2.427 2.426H14.995a2.428 2.428 0 0 1-2.427-2.426V19.682h3.515c-.326.803-.51 1.9-.51 2.82a6.93 6.93 0 0 0 6.923 6.922c3.818 0 6.921-3.106 6.921-6.923 0-.92-.184-2.016-.51-2.82h3.474V29.96h.003z" fill="#fff"/><defs><linearGradient id="b-in-paint0_linear" x2="1" gradientUnits="userSpaceOnUse" gradientTransform="matrix(-30.2216 34.0804 -34.0804 -30.7669 54.965 21.74)"><stop stop-color="#853BCB"/><stop offset=".503" stop-color="#DF326B"/><stop offset="1" stop-color="#FCB758"/></linearGradient></defs></svg><svg width="32" height="32" id="b-tw" y="77"><path fill="#26a6d1" d="M16 0c8.837 0 16 7.164 16 16 0 8.837-7.163 16-16 16S0 24.837 0 16C0 7.164 7.163 0 16 0z"/><path fill="#fff" d="M26.003 10.779a7.964 7.964 0 0 1-2.24.597 3.815 3.815 0 0 0 1.715-2.095 7.906 7.906 0 0 1-2.477.919 3.95 3.95 0 0 0-2.846-1.194c-2.152 0-3.898 1.693-3.898 3.783 0 .297.034.586.101.863a11.184 11.184 0 0 1-8.036-3.954 3.676 3.676 0 0 0-.528 1.902c0 1.312.688 2.472 1.734 3.149a3.964 3.964 0 0 1-1.767-.474v.048c0 1.834 1.344 3.363 3.128 3.711a4.032 4.032 0 0 1-1.76.065c.496 1.504 1.936 2.598 3.643 2.628a7.971 7.971 0 0 1-4.843 1.62c-.315 0-.625-.018-.931-.053a11.283 11.283 0 0 0 5.978 1.701c7.172 0 11.094-5.768 11.094-10.768l-.011-.49a7.779 7.779 0 0 0 1.944-1.958z"/></svg><svg width="32" height="32" id="b-vk" y="109"><path fill="#4d76a1" d="M16 32c8.837 0 16-7.163 16-16S24.837 0 16 0 0 7.163 0 16s7.163 16 16 16z"/><path fill="#fff" d="M15.396 23.018h1.256s.379-.042.573-.25c.178-.192.173-.552.173-.552s-.025-1.685.757-1.933c.771-.244 1.761 1.629 2.81 2.349.793.545 1.396.426 1.396.426l2.806-.039s1.468-.09.772-1.244c-.057-.094-.405-.854-2.086-2.414-1.759-1.633-1.524-1.369.596-4.193 1.291-1.72 1.806-2.77 1.645-3.22-.154-.428-1.103-.315-1.103-.315l-3.159.02s-.234-.032-.408.072c-.17.102-.279.339-.279.339s-.5 1.331-1.167 2.463c-1.407 2.389-1.969 2.515-2.199 2.366-.535-.346-.401-1.389-.401-2.13 0-2.315.351-3.28-.684-3.53-.343-.083-.596-.138-1.474-.147-1.127-.012-2.081.003-2.621.268-.359.176-.637.568-.468.591.209.028.682.127.932.469.324.44.312 1.43.312 1.43s.186 2.725-.434 3.064c-.426.232-1.01-.242-2.264-2.409-.643-1.11-1.128-2.337-1.128-2.337s-.094-.229-.26-.352c-.203-.149-.485-.196-.485-.196l-3.002.02s-.451.013-.616.209c-.147.174-.012.535-.012.535s2.35 5.498 5.011 8.269c2.44 2.54 5.211 2.374 5.211 2.374z"/></svg><svg width="13" height="13" fill="none" id="cancel" y="141"><path fill-rule="evenodd" clip-rule="evenodd" d="M8.045 6.5l4.635-4.635A1.092 1.092 0 1 0 11.135.32L6.5 4.955 1.865.32A1.092 1.092 0 1 0 .32 1.865L4.955 6.5.32 11.135a1.093 1.093 0 0 0 1.545 1.545L6.5 8.045l4.635 4.635a1.092 1.092 0 1 0 1.545-1.545L8.045 6.5z" fill="#B32424"/></svg><svg width="36" height="36" fill="none" id="center_download" y="154"><path fill="#fff" d="M0 31h36v5H0zM12 0h12v20H12z"/><path d="M18 27L6.742 16.5h22.516L18 27z" fill="#fff"/></svg><svg viewBox="0 0 26 26" width="32" height="32" id="check" y="190"><path d="M.3 14c-.2-.2-.3-.5-.3-.7s.1-.5.3-.7l1.4-1.4c.4-.4 1-.4 1.4 0l.1.1 5.5 5.9c.2.2.5.2.7 0L22.8 3.3h.1c.4-.4 1-.4 1.4 0l1.4 1.4c.4.4.4 1 0 1.4l-16 16.6c-.2.2-.4.3-.7.3-.3 0-.5-.1-.7-.3L.5 14.3.3 14z"/></svg><svg width="15" height="11" fill="none" id="checked" y="222"><path d="M5.397 11c-.305 0-.61-.118-.842-.355L.35 6.357a1.229 1.229 0 0 1 0-1.715 1.174 1.174 0 0 1 1.682 0l3.366 3.43L12.969.355a1.174 1.174 0 0 1 1.682 0 1.229 1.229 0 0 1 0 1.715l-8.413 8.575a1.176 1.176 0 0 1-.841.355z" fill="#84CB63"/></svg><svg width="64" height="64" id="close-2" y="233"><path fill="#fff" d="M28.941 31.786L.613 60.114a2.014 2.014 0 1 0 2.848 2.849l28.541-28.541 28.541 28.541c.394.394.909.59 1.424.59a2.014 2.014 0 0 0 1.424-3.439L35.064 31.786 63.41 3.438A2.014 2.014 0 1 0 60.562.589L32.003 29.15 3.441.59A2.015 2.015 0 0 0 .593 3.439l28.348 28.347z"/></svg><svg width="18" height="17" fill="none" id="close-3" y="297"><path fill-rule="evenodd" clip-rule="evenodd" d="M8.9 9.117L.648 17l-.424-.423 8.248-7.88L0 .422.428.003l8.477 8.28L17.576 0 18 .423l-8.666 8.28 8.062 7.877-.428.418L8.9 9.117z" fill="#41688C"/></svg><svg width="64" height="64" id="close" y="314"><path d="M28.941 31.786L.613 60.114a2.014 2.014 0 1 0 2.848 2.849l28.541-28.541 28.541 28.541c.394.394.909.59 1.424.59a2.014 2.014 0 0 0 1.424-3.439L35.064 31.786 63.41 3.438A2.014 2.014 0 1 0 60.562.589L32.003 29.15 3.441.59A2.015 2.015 0 0 0 .593 3.439l28.348 28.347z"/></svg><svg width="30" height="30" fill="none" id="csoc-icon-1" y="378"><path d="M15 0c8.284 0 15 6.716 15 15 0 8.284-6.716 15-15 15-8.284 0-15-6.716-15-15C0 6.716 6.715 0 15 0z" fill="#384B61"/><path d="M20.177 6.56H9.822a3.265 3.265 0 0 0-3.261 3.262v10.356c0 1.799 1.463 3.261 3.261 3.261h10.356c1.799 0 3.261-1.463 3.261-3.261V9.822a3.266 3.266 0 0 0-3.262-3.262zm1.027 1.888l.37-.001v2.801l-2.822.01-.01-2.802 2.462-.008zM15 12.176c2.34 0 2.824 2.198 2.824 2.825A2.828 2.828 0 0 1 15 17.823a2.827 2.827 0 0 1-2.824-2.822c0-.627.483-2.825 2.824-2.825zm6.59 7.797c0 .892-.725 1.617-1.618 1.617H9.996a1.619 1.619 0 0 1-1.618-1.617v-6.852h2.344c-.217.535-.34 1.267-.34 1.88a4.62 4.62 0 0 0 4.615 4.615 4.62 4.62 0 0 0 4.614-4.615c0-.613-.122-1.345-.34-1.88h2.317v6.852h.002z" fill="#fff"/></svg><svg width="30" height="30" fill="none" id="csoc-icon-2" y="408"><path d="M15 0c8.285 0 15 6.716 15 15 0 8.285-6.715 15-15 15S0 23.285 0 15C0 6.716 6.715 0 15 0z" fill="#384B61"/><path d="M16.826 10.326h1.934V7.471h-2.273v.01c-2.753.098-3.318 1.645-3.367 3.271h-.006v1.426h-1.875v2.796h1.875v7.497h2.826v-7.497h2.314l.447-2.796h-2.76v-.862c0-.549.365-.99.885-.99z" fill="#fff"/></svg><svg width="30" height="30" fill="none" id="csoc-icon-3" y="438"><path d="M15 0c8.285 0 15 6.716 15 15 0 8.285-6.715 15-15 15S0 23.285 0 15C0 6.716 6.715 0 15 0z" fill="#384B61"/><path d="M24.378 10.105a7.47 7.47 0 0 1-2.1.56A3.576 3.576 0 0 0 23.886 8.7a7.41 7.41 0 0 1-2.322.861 3.703 3.703 0 0 0-2.669-1.119c-2.017 0-3.654 1.587-3.654 3.547 0 .278.032.549.095.809a10.485 10.485 0 0 1-7.534-3.707 3.446 3.446 0 0 0-.495 1.783c0 1.23.645 2.317 1.626 2.952a3.717 3.717 0 0 1-1.657-.444v.045c0 1.72 1.26 3.153 2.933 3.479a3.78 3.78 0 0 1-1.65.06c.465 1.41 1.815 2.436 3.415 2.465a7.473 7.473 0 0 1-4.54 1.518c-.296 0-.586-.017-.873-.05a10.579 10.579 0 0 0 5.604 1.595c6.724 0 10.4-5.407 10.4-10.095l-.01-.459a7.294 7.294 0 0 0 1.823-1.836z" fill="#fff"/></svg><svg width="30" height="30" fill="none" id="csoc-icon-4" y="468"><path d="M15 30c8.284 0 15-6.716 15-15 0-8.284-6.716-15-15-15C6.716 0 0 6.716 0 15c0 8.284 6.716 15 15 15z" fill="#384B61"/><path fill-rule="evenodd" clip-rule="evenodd" d="M14.434 21.579h1.178s.355-.04.537-.235c.167-.18.161-.517.161-.517s-.023-1.58.71-1.812c.723-.23 1.652 1.526 2.635 2.201.744.511 1.31.4 1.31.4l2.63-.037s1.376-.085.723-1.167c-.053-.088-.38-.8-1.955-2.263-1.65-1.53-1.429-1.283.558-3.93 1.21-1.613 1.694-2.598 1.542-3.02-.144-.401-1.034-.295-1.034-.295l-2.961.018s-.22-.03-.383.068c-.159.095-.261.318-.261.318s-.469 1.247-1.094 2.309c-1.319 2.24-1.846 2.357-2.061 2.218-.502-.324-.377-1.302-.377-1.996 0-2.17.33-3.075-.64-3.31-.323-.077-.56-.129-1.383-.137-1.057-.01-1.95.003-2.457.251-.337.165-.597.533-.439.554.196.026.64.12.874.44.304.413.293 1.34.293 1.34s.174 2.555-.407 2.872c-.4.218-.947-.227-2.123-2.258C9.408 12.55 8.953 11.4 8.953 11.4a.88.88 0 0 0-.244-.33c-.19-.14-.455-.184-.455-.184l-2.815.018s-.422.012-.577.196c-.138.163-.011.501-.011.501s2.203 5.155 4.698 7.753c2.287 2.381 4.885 2.225 4.885 2.225z" fill="#fff"/></svg><svg width="18" height="10" fill="none" id="down" y="498"><path d="M17 1L9 9 1 1" stroke="#B7B7B7"/></svg><svg width="32" height="32" id="f-fb" y="508"><path fill="#fff" d="M16 0c8.837 0 16 7.164 16 16s-7.163 16-16 16S0 24.837 0 16 7.163 0 16 0z"/><path fill="#384b61" d="M17.948 11.015h2.062V7.969h-2.424v.011c-2.937.104-3.539 1.755-3.592 3.489h-.006v1.521h-2v2.983h2v7.996h3.014v-7.996h2.469l.477-2.983h-2.945v-.919c0-.586.39-1.056.945-1.056z"/></svg><svg width="32" height="32" id="f-in" y="540"><path fill="#fff" d="M16 0c8.836 0 16 7.164 16 16s-7.164 16-16 16S0 24.836 0 16 7.163 0 16 0z"/><path fill="#384b61" d="M21.522 6.998H10.477a3.483 3.483 0 0 0-3.479 3.479v11.046a3.483 3.483 0 0 0 3.479 3.479h11.046a3.483 3.483 0 0 0 3.479-3.479V10.477a3.484 3.484 0 0 0-3.48-3.479zm1.096 2.013l.394-.001v2.988l-3.01.01-.01-2.988 2.626-.009zM16 12.988c2.497 0 3.012 2.344 3.012 3.013A3.016 3.016 0 0 1 16 19.012a3.016 3.016 0 0 1-3.012-3.011c-.001-.669.515-3.013 3.012-3.013zm7.029 8.317c0 .951-.773 1.725-1.726 1.725h-10.64a1.727 1.727 0 0 1-1.726-1.725v-7.309h2.5c-.232.571-.363 1.351-.363 2.005 0 2.714 2.208 4.923 4.923 4.923s4.922-2.209 4.922-4.923c0-.654-.131-1.434-.362-2.005h2.47v7.309h.002z"/></svg><svg width="32" height="32" id="f-tw" y="572"><path fill="#fff" d="M16 0c8.837 0 16 7.164 16 16s-7.163 16-16 16S0 24.837 0 16 7.163 0 16 0z"/><path fill="#384b61" d="M26.003 10.779a7.964 7.964 0 0 1-2.24.597 3.815 3.815 0 0 0 1.715-2.095 7.906 7.906 0 0 1-2.477.919 3.95 3.95 0 0 0-2.846-1.194c-2.152 0-3.898 1.693-3.898 3.783 0 .297.034.586.101.863a11.184 11.184 0 0 1-8.036-3.954 3.676 3.676 0 0 0-.528 1.902c0 1.312.688 2.472 1.734 3.149a3.964 3.964 0 0 1-1.767-.474v.048c0 1.834 1.344 3.363 3.128 3.711a4.032 4.032 0 0 1-1.76.065c.496 1.504 1.936 2.598 3.643 2.628a7.971 7.971 0 0 1-4.843 1.62c-.315 0-.625-.018-.931-.053a11.283 11.283 0 0 0 5.978 1.701c7.172 0 11.094-5.768 11.094-10.768l-.011-.49a7.779 7.779 0 0 0 1.944-1.958z"/></svg><svg width="32" height="32" id="f-vk" y="604"><path fill="#fff" d="M16 32c8.837 0 16-7.163 16-16S24.837 0 16 0 0 7.163 0 16s7.163 16 16 16z"/><path fill="#384b61" d="M15.397 23.017h1.256s.379-.042.573-.25c.178-.192.172-.552.172-.552s-.025-1.685.758-1.933c.771-.244 1.761 1.629 2.81 2.349.794.545 1.396.425 1.396.425l2.806-.039s1.468-.09.772-1.244c-.057-.094-.405-.854-2.086-2.414-1.759-1.633-1.524-1.369.596-4.193 1.291-1.72 1.807-2.77 1.645-3.22-.154-.428-1.103-.315-1.103-.315l-3.159.02s-.234-.032-.408.072c-.17.102-.279.339-.279.339s-.5 1.331-1.167 2.463c-1.407 2.389-1.969 2.515-2.199 2.366-.535-.346-.401-1.389-.401-2.13 0-2.315.351-3.28-.684-3.53-.343-.083-.596-.138-1.474-.147-1.127-.012-2.081.003-2.621.268-.359.176-.637.568-.468.591.209.028.682.127.932.469.324.44.312 1.429.312 1.429s.186 2.725-.434 3.064c-.426.232-1.01-.242-2.264-2.409-.643-1.11-1.128-2.337-1.128-2.337s-.094-.229-.26-.352c-.203-.149-.485-.196-.485-.196l-3.002.02s-.451.013-.616.209c-.147.174-.012.535-.012.535s2.35 5.498 5.011 8.269c2.44 2.54 5.211 2.374 5.211 2.374z"/></svg><svg width="25" height="31" fill="none" id="ft-icon-1" y="636"><path fill="#fff" stroke="#D65353" d="M4.5.5h20v26h-20z"/><path fill="#fff" stroke="#D65353" d="M2.5 2.5h20v26h-20z"/><path fill="#fff" stroke="#D65353" d="M.5 4.5h20v26H.5z"/><path fill="#373737" d="M3 9h15v1H3zM3 13h15v1H3zM3 17h15v1H3zM3 21h15v1H3zM3 25h10v1H3z"/></svg><svg width="31" height="27" fill="none" id="ft-icon-2" y="667"><rect x=".5" y=".5" width="30" height="26" rx="2.5" fill="#fff" stroke="#D65353"/><path fill="#D65353" d="M31 7v1H0V7z"/><path d="M12.59 21h-1.845v-6.292l-1.443 1.469-1.053-1.105 2.73-2.743h1.612V21zm5.58.156c-.98 0-1.808-.208-2.484-.624-.667-.416-1-1.01-1-1.781 0-.503.173-.949.52-1.339a3.079 3.079 0 0 1 1.338-.884c-1.144-.399-1.716-1.079-1.716-2.041 0-.754.33-1.322.989-1.703.667-.39 1.451-.585 2.352-.585.572 0 1.101.074 1.587.221a2.74 2.74 0 0 1 1.235.767c.346.355.52.789.52 1.3 0 .953-.577 1.634-1.73 2.041.547.19.993.485 1.34.884.355.39.533.836.533 1.339 0 .763-.338 1.356-1.014 1.781-.677.416-1.5.624-2.47.624zm0-5.356c.355-.052.684-.165.987-.338.313-.173.468-.403.468-.689 0-.303-.134-.542-.402-.715-.27-.182-.62-.273-1.053-.273-.434 0-.79.091-1.067.273-.268.173-.402.412-.402.715 0 .286.155.516.468.689.311.173.645.286 1 .338zm0 3.77c.45 0 .831-.095 1.143-.286.313-.2.469-.455.469-.767 0-.32-.178-.58-.534-.78a2.977 2.977 0 0 0-1.079-.377 3.095 3.095 0 0 0-1.091.377c-.347.2-.52.46-.52.78 0 .312.151.568.454.767.313.19.698.286 1.157.286z" fill="#373737"/></svg><svg width="43" height="39" fill="none" id="ft-icon-3" y="694"><path fill="#000" d="M5 22h1v5H5zM5 21h33v1H5z"/><path fill="#000" d="M21 18h1v9h-1zM37 22h1v5h-1z"/><path fill="#fff" stroke="#D65353" d="M13.5.5h16v16h-16zM.5 28.5h10v10H.5zM16.5 28.5h10v10h-10z"/><path fill="#fff" stroke="#DD1316" d="M32.5 28.5h10v10h-10z"/></svg><svg width="24" height="32" fill="none" id="ft-icon-4" y="733"><path d="M.5 2A1.5 1.5 0 0 1 2 .5h20A1.5 1.5 0 0 1 23.5 2v26.95a1.5 1.5 0 0 1-2.098 1.375l-7.937-3.45a2.5 2.5 0 0 0-1.926-.03L2.557 30.44A1.5 1.5 0 0 1 .5 29.046V2z" fill="#fff" stroke="#D65353"/></svg><svg width="32" height="30" fill="none" id="ft-icon-5" y="765"><path stroke="#D65353" d="M23.354 21.646l8 8"/><circle cx="13.5" cy="13.5" r="13" fill="#fff" stroke="#000"/></svg><svg width="32" height="25" fill="none" id="ft-icon-6" y="795"><path d="M10.5 3A2.5 2.5 0 0 1 13 .5h6A2.5 2.5 0 0 1 21.5 3v1.5h-11V3z" stroke="#D65353"/><rect x=".5" y=".5" width="31" height="20" rx="2.5" transform="translate(0 4)" fill="#fff" stroke="#000"/></svg><svg width="28" height="29" fill="none" id="ft-icon-7" y="820"><path fill="#D65353" d="M1 27h26v2H1z"/><path d="M2.066 20.588A1.5 1.5 0 0 1 3.51 19.5H24.49a1.5 1.5 0 0 1 1.443 1.088l.857 3a1.5 1.5 0 0 1-1.442 1.912H2.65a1.5 1.5 0 0 1-1.442-1.912l.857-3z" fill="#fff" stroke="#000"/><path fill="#fff" stroke="#000" d="M11.5 7.5h5v15h-5z"/><circle cx="6" cy="6" r="5.5" transform="translate(8)" fill="#fff" stroke="#000"/><path d="M11 6.5c.167-1.167 1-3.5 3-3.5" stroke="#000"/></svg><svg width="33" height="32" fill="none" id="ft-icon-8" y="849"><rect x=".5" y=".5" width="27" height="27" rx="4.5" transform="translate(0 4)" fill="#fff" stroke="#000"/><circle cx="6" cy="6" r="6" transform="translate(21)" fill="#D65353"/></svg><svg width="24" height="26" fill="none" id="ft-icon-9" y="881"><path d="M4.887 5.156C8.762 1.684 14.562 1.63 18.491 4.8l-3.114.117a.717.717 0 0 0 .027 1.433h.027l4.78-.175a.718.718 0 0 0 .698-.716v-.054-.031L20.732.69a.722.722 0 0 0-.75-.69.717.717 0 0 0-.697.743l.112 2.936c-1.946-1.577-4.342-2.49-6.904-2.618a11.87 11.87 0 0 0-8.576 3.032A11.723 11.723 0 0 0 .337 15.62a.72.72 0 0 0 .873.526.717.717 0 0 0 .53-.865c-.9-3.696.3-7.577 3.147-10.125z" fill="#000"/><path d="M23.664 10.38a.725.725 0 0 0-.874-.525.717.717 0 0 0-.53.865c.905 3.695-.3 7.576-3.147 10.125-2 1.789-4.508 2.67-7.006 2.67a10.5 10.5 0 0 1-6.684-2.384l3.152-.281a.718.718 0 1 0-.134-1.428l-4.765.425a.718.718 0 0 0-.654.78l.428 4.72A.72.72 0 0 0 4.17 26c.021 0 .043 0 .064-.005a.718.718 0 0 0 .654-.78l-.257-2.873a11.888 11.888 0 0 0 6.877 2.596 11.895 11.895 0 0 0 8.576-3.032 11.72 11.72 0 0 0 3.58-11.526z" fill="#D65353"/></svg><svg width="38" height="40" fill="none" id="h-icon-1" y="907"><path d="M28.27 26.52c0 2.558-6.112 4.655-13.66 4.655C7.06 31.175 1 29.078 1 26.52" fill="#fff"/><path d="M28.27 26.52c0 2.558-6.112 4.655-13.66 4.655C7.06 31.175 1 29.078 1 26.52" stroke="#373737" stroke-linecap="round" stroke-linejoin="round"/><path d="M28.27 22.327c0 2.557-6.112 4.654-13.66 4.654C7.06 26.981 1 24.884 1 22.327" fill="#fff"/><path d="M28.27 22.327c0 2.557-6.112 4.654-13.66 4.654C7.06 26.981 1 24.884 1 22.327" stroke="#373737" stroke-linecap="round" stroke-linejoin="round"/><path d="M28.27 18.184c0 2.558-6.112 4.655-13.66 4.655C7.06 22.839 1 20.742 1 18.184" fill="#fff"/><path d="M28.27 18.184c0 2.558-6.112 4.655-13.66 4.655C7.06 22.839 1 20.742 1 18.184" stroke="#373737" stroke-linecap="round" stroke-linejoin="round"/><path d="M28.27 13.99c0 2.558-6.112 4.655-13.66 4.655C7.06 18.645 1 16.599 1 13.99" fill="#fff"/><path d="M28.27 13.99c0 2.558-6.112 4.655-13.66 4.655C7.06 18.645 1 16.599 1 13.99" stroke="#373737" stroke-linecap="round" stroke-linejoin="round"/><path d="M28.27 9.848c0 2.557-6.112 4.654-13.66 4.654C7.06 14.502 1 12.405 1 9.848" fill="#fff"/><path d="M28.27 9.848c0 2.557-6.112 4.654-13.66 4.654C7.06 14.502 1 12.405 1 9.848" stroke="#373737" stroke-linecap="round" stroke-linejoin="round"/><path d="M14.66 10.308c7.545 0 13.661-2.083 13.661-4.654 0-2.57-6.116-4.654-13.66-4.654C7.116 1 1 3.084 1 5.654s6.116 4.654 13.66 4.654z" fill="#fff" stroke="#373737" stroke-linecap="round" stroke-linejoin="round"/><path d="M28.27 5.654v21.123M1 5.654v21.123" stroke="#373737" stroke-linecap="round" stroke-linejoin="round"/><path d="M26.934 39C32.494 39 37 34.512 37 28.976c0-5.536-4.506-10.024-10.066-10.024-5.559 0-10.065 4.488-10.065 10.024C16.869 34.512 21.375 39 26.934 39z" fill="#fff" stroke="#6399CA"/><path d="M34.74 26.52c-.051-.204-.256-.357-.462-.408l-4.57-.716-2.157-4.348c-.206-.409-.873-.409-1.079 0l-2.157 4.348-4.57.716c-.206.05-.411.204-.463.409a.67.67 0 0 0 .155.614l3.235 3.375-1.027 4.45c-.052.204.051.46.205.613.154.154.411.154.616.103l4.571-1.995 4.57 1.995c.052.05.155.05.258.05a.468.468 0 0 0 .359-.153c.154-.153.257-.358.205-.613l-1.027-4.45 3.236-3.375a.834.834 0 0 0 .102-.614z" fill="#fff" stroke="#6399CA"/></svg><svg width="32" height="43" fill="none" id="h-icon-2" y="947"><path d="M31 3.9H4.333v34.71H31V3.9z" fill="#fff" stroke="#373737" stroke-miterlimit="10"/><path d="M21.28 4.844h-7.308c-.835 0-1.462-.833-1.462-1.794v-.256C12.51 1.769 13.19 1 13.972 1h7.308c.835 0 1.462.833 1.462 1.794v.192c0 1.025-.679 1.858-1.462 1.858zM27.667 7.29H1V42h26.667V7.29z" fill="#fff" stroke="#373737" stroke-miterlimit="10"/><path d="M16.152 14.222V11.39h-2.526v2.833h-2.828v2.53h2.828v2.833h2.526v-2.833h2.828v-2.53h-2.828zM4.535 36.434h15.202M4.535 31.577h19.697M4.535 26.67h19.697" stroke="#6399CA"/></svg><svg width="59" height="32" fill="none" id="h-icon-3" y="990"><path d="M13.155 14.293H28.88V7.88H13.155M34.776 18.017h4.914a.927.927 0 0 0 .93-.93v-12a.927.927 0 0 0-.93-.932h-4.914a.927.927 0 0 0-.931.931v12c0 .518.414.931.93.931z" stroke="#373737" stroke-miterlimit="10"/><path d="M29.759 21.172h4.913a.927.927 0 0 0 .931-.93V1.93a.927.927 0 0 0-.93-.931h-4.914a.927.927 0 0 0-.931.931v18.31c.051.518.465.931.93.931z" fill="#fff" stroke="#373737" stroke-miterlimit="10"/><path d="M6.793 18.017H1.931a.927.927 0 0 1-.931-.93v-12c0-.518.414-.932.931-.932h4.914c.517 0 .93.414.93.931v12c-.05.518-.465.931-.982.931z" stroke="#373737" stroke-miterlimit="10"/><path d="M11.81 21.172H6.897a.927.927 0 0 1-.931-.93V1.93c0-.517.413-.931.93-.931h4.914c.518 0 .931.414.931.931v18.31a.927.927 0 0 1-.93.931z" fill="#fff" stroke="#373737" stroke-miterlimit="10"/><path d="M30.38 24.12h15.672v-6.413H30.328" fill="#fff"/><path d="M30.38 24.12h15.672v-6.413H30.328" stroke="#6399CA"/><path d="M51.948 27.845h4.914a.927.927 0 0 0 .931-.931v-12a.927.927 0 0 0-.931-.931h-4.914a.927.927 0 0 0-.93.93v12c.05.518.465.932.93.932z" fill="#fff" stroke="#6399CA"/><path d="M46.983 31h4.914a.927.927 0 0 0 .93-.931v-18.31a.927.927 0 0 0-.93-.931h-4.914a.927.927 0 0 0-.931.93v18.31c0 .518.413.932.93.932zM24.017 27.845h-4.914a.927.927 0 0 1-.93-.931v-12c0-.517.413-.931.93-.931h4.914c.517 0 .931.414.931.93v12c-.051.518-.465.932-.93.932z" fill="#fff" stroke="#6399CA"/><path d="M29.034 31h-4.913a.927.927 0 0 1-.931-.931v-18.31c0-.518.413-.931.93-.931h4.914c.518 0 .931.413.931.93v18.31c-.051.518-.465.932-.93.932z" fill="#fff" stroke="#6399CA"/></svg><svg width="46" height="37" fill="none" id="h-icon-4" y="1022"><path d="M9.79 18.605c4.855 0 8.79-3.94 8.79-8.802S14.646 1 9.79 1C4.936 1 1 4.941 1 9.803c0 4.861 3.936 8.802 8.79 8.802z" fill="#fff" stroke="#6399CA" stroke-linecap="round" stroke-linejoin="round"/><path d="M10.128 10.141v18.282a4.538 4.538 0 0 0 4.54 4.547h18.257a4.538 4.538 0 0 0 4.54-4.547V10.141H10.128z" fill="#fff" stroke="#373737"/><path d="M37 36H11v1h26v-1z" fill="#6399CA"/><path d="M37.852 25.183h5.7c.772 0 1.448-.629 1.448-1.45v-5.708c0-.774-.628-1.451-1.449-1.451h-5.7" stroke="#373737"/><path d="M11.964 3.757L10.9 8.448l4.782-1.112a5.079 5.079 0 0 0-3.72-3.58zM7.375 3.612l1.063 4.691-4.782-1.112c.483-1.741 1.932-3.144 3.72-3.58zM7.327 16.042L8.39 11.35l-4.782 1.113c.483 1.74 1.932 3.144 3.72 3.579z" fill="#fff" stroke="#6399CA" stroke-linecap="round" stroke-linejoin="round"/></svg><svg width="52" height="47" fill="none" id="h-icon-5" y="1059"><path d="M51 1H27.19v18.872H51V1z" fill="#fff" stroke="#373737" stroke-miterlimit="10" stroke-linecap="round" stroke-linejoin="round"/><path d="M48.619 3.359H29.571v14.154H48.62V3.359z" fill="#fff" stroke="#373737" stroke-miterlimit="10" stroke-linecap="round" stroke-linejoin="round"/><path d="M5.157 23.796v-7.089c0-2.703 2.235-4.947 5.04-4.947h19.436c2.754 0 5.04 2.193 5.04 4.947v7.089" fill="#fff"/><path d="M5.157 23.796v-7.089c0-2.703 2.235-4.947 5.04-4.947h19.436c2.754 0 5.04 2.193 5.04 4.947v7.089" stroke="#6399CA"/><path d="M38.727 33.893c0 4.59-3.794 8.313-8.47 8.313H9.47c-4.677 0-8.47-3.723-8.47-8.313v-7.445c0-1.632 1.351-2.958 3.014-2.958 1.663 0 3.014 1.326 3.014 2.958v7.496c0 1.326 1.091 2.397 2.442 2.397h20.786c1.352 0 2.443-1.07 2.443-2.397v-7.496c0-1.632 1.35-2.958 3.014-2.958 1.663 0 3.014 1.326 3.014 2.958v7.445zM16.486 18.951c-.624 0-1.196.51-1.196 1.173.052.612.52 1.173 1.196 1.173.623 0 1.195-.51 1.195-1.173-.052-.612-.52-1.173-1.195-1.173z" fill="#fff" stroke="#6399CA"/><path d="M16.486 24.918c-.624 0-1.196.51-1.196 1.173.052.612.52 1.173 1.196 1.173.623 0 1.195-.51 1.195-1.173-.052-.612-.52-1.173-1.195-1.173zM23.241 18.951c-.623 0-1.195.51-1.195 1.173.052.612.52 1.173 1.195 1.173.624 0 1.195-.51 1.195-1.173-.052-.612-.52-1.173-1.195-1.173zM23.241 24.918c-.623 0-1.195.51-1.195 1.173.052.612.52 1.173 1.195 1.173.624 0 1.195-.51 1.195-1.173-.052-.612-.52-1.173-1.195-1.173z" fill="#fff" stroke="#6399CA"/><path d="M29.425 42.308V47M10.094 42.308V47" stroke="#6399CA"/></svg><svg width="39" height="32" fill="none" id="h-icon-6" y="1106"><path d="M35.818 1H3.588A2.605 2.605 0 0 0 1 3.588v19.29a2.605 2.605 0 0 0 2.588 2.587h2.588v4.884c0 .586.684.879 1.124.44l5.322-5.324h23.196a2.605 2.605 0 0 0 2.588-2.588V3.588C38.406 2.123 37.283 1 35.818 1z" fill="#fff" stroke="#373737"/><path d="M14.039 6.518A1.89 1.89 0 0 0 12.232 5.2h-.684a1.89 1.89 0 0 0-1.807 1.318l-3.565 11.33c-.097.341.098.634.391.78.342.099.635-.097.781-.39l.88-2.783H15.6l.88 2.783c.097.244.341.44.585.44.049 0 .098 0 .196-.05.341-.097.488-.439.39-.78L14.04 6.518zm-5.47 7.667l2.295-7.325c.098-.293.342-.488.635-.488h.684c.293 0 .586.195.635.488l2.295 7.325H8.569zM21.559 10.962c-.733 0-1.416.244-1.953.684V6.42a.594.594 0 0 0-.586-.586.594.594 0 0 0-.586.586v9.034a3.168 3.168 0 0 0 3.174 3.174c2.1 0 3.809-1.71 3.809-3.81 0-2.099-1.758-3.857-3.858-3.857zm0 6.446a1.96 1.96 0 0 1-1.953-1.953v-1.27a1.96 1.96 0 0 1 1.953-1.953 2.626 2.626 0 0 1 2.637 2.637c0 1.465-1.172 2.54-2.637 2.54zM29.958 12.183c.83 0 1.612.39 2.1 1.025.195.245.586.342.83.098.244-.195.342-.586.098-.83-.733-.977-1.856-1.514-3.077-1.514-2.1 0-3.809 1.71-3.809 3.81 0 2.099 1.71 3.808 3.81 3.808 1.22 0 2.343-.537 3.076-1.514a.61.61 0 0 0-.098-.83.61.61 0 0 0-.83.098c-.488.683-1.27 1.025-2.1 1.025a2.626 2.626 0 0 1-2.637-2.637c0-1.465 1.172-2.54 2.637-2.54z" fill="#6399CA"/></svg><svg width="35" height="38" fill="none" id="headphones-green" y="1138"><path d="M30.231 14.45v-1.461c0-3.497-1.212-6.746-3.408-9.157C24.57 1.357 21.475 0 18.098 0h-1.18c-3.378 0-6.473 1.357-8.725 3.832-2.197 2.41-3.409 5.66-3.409 9.157v1.46C2.12 14.634 0 16.9 0 19.672v2.283c0 2.882 2.298 5.229 5.12 5.229h2.885a.951.951 0 0 0 .938-.958V15.392a.951.951 0 0 0-.938-.958H6.661v-1.445c0-6.315 4.409-11.073 10.249-11.073h1.18c5.848 0 10.25 4.758 10.25 11.073v1.445h-1.345a.951.951 0 0 0-.939.958v10.825c0 .527.423.958.939.958h1.313c-.383 4.997-3.753 6.155-5.316 6.418-.43-1.349-1.673-2.323-3.135-2.323h-2.345c-1.814 0-3.292 1.509-3.292 3.361 0 1.852 1.478 3.369 3.292 3.369h2.353c1.517 0 2.79-1.054 3.174-2.475.766-.112 1.978-.391 3.182-1.11 1.696-1.013 3.705-3.081 3.971-7.248C32.874 26.999 35 24.724 35 21.946v-2.283c.008-2.763-2.103-5.038-4.769-5.213zM7.083 25.259H5.136c-1.79 0-3.244-1.485-3.244-3.313v-2.283c0-1.829 1.454-3.313 3.244-3.313h1.947v8.909zm12.782 10.825h-2.353c-.782 0-1.415-.647-1.415-1.445s.633-1.445 1.415-1.445h2.353c.782 0 1.415.647 1.415 1.445s-.633 1.445-1.415 1.445zm13.267-14.138c0 1.828-1.455 3.313-3.245 3.313h-1.946v-8.91h1.946c1.79 0 3.245 1.485 3.245 3.314v2.283z" fill="#329746"/></svg><svg width="35" height="38" fill="none" id="headphones" y="1176"><path d="M30.231 14.45v-1.461c0-3.497-1.212-6.746-3.408-9.157C24.57 1.357 21.475 0 18.098 0h-1.18c-3.378 0-6.473 1.357-8.725 3.832-2.197 2.41-3.409 5.66-3.409 9.157v1.46C2.12 14.634 0 16.9 0 19.672v2.283c0 2.882 2.298 5.229 5.12 5.229h2.885a.951.951 0 0 0 .938-.958V15.392a.951.951 0 0 0-.938-.958H6.661v-1.445c0-6.315 4.409-11.073 10.249-11.073h1.18c5.848 0 10.25 4.758 10.25 11.073v1.445h-1.345a.951.951 0 0 0-.939.958v10.825c0 .527.423.958.939.958h1.313c-.383 4.997-3.753 6.155-5.316 6.418-.43-1.349-1.673-2.323-3.135-2.323h-2.345c-1.814 0-3.292 1.509-3.292 3.361 0 1.852 1.478 3.369 3.292 3.369h2.353c1.517 0 2.79-1.054 3.174-2.475.766-.112 1.978-.391 3.182-1.11 1.696-1.013 3.705-3.081 3.971-7.248C32.874 26.999 35 24.724 35 21.946v-2.283c.008-2.763-2.103-5.038-4.769-5.213zM7.083 25.259H5.136c-1.79 0-3.244-1.485-3.244-3.313v-2.283c0-1.829 1.454-3.313 3.244-3.313h1.947v8.909zm12.782 10.825h-2.353c-.782 0-1.415-.647-1.415-1.445s.633-1.445 1.415-1.445h2.353c.782 0 1.415.647 1.415 1.445s-.633 1.445-1.415 1.445zm13.267-14.138c0 1.828-1.455 3.313-3.245 3.313h-1.946v-8.91h1.946c1.79 0 3.245 1.485 3.245 3.314v2.283z" fill="#D8595A"/></svg><svg width="91" height="114" fill="none" id="hedgehog" y="1214"><path d="M90.891 74.002a2.764 2.764 0 0 0-1.594-1.793c-7.209-2.988-13.28-7.218-18.043-12.573C61.203 48.34 59.247 31.6 66.384 17.981a2.798 2.798 0 0 0 .025-2.548 2.75 2.75 0 0 0-2.044-1.492c-10.764-1.632-18.282 1.417-22.55 4.09L40.222 4.358a2.773 2.773 0 0 0-1.137-1.937 2.724 2.724 0 0 0-2.185-.447c-9.63 2.162-16.67 8.393-20.716 12.96L14.008 2.297A2.772 2.772 0 0 0 12.596.327 2.723 2.723 0 0 0 10.19.239C.919 4.4-5.512 12.969-9.24 19.325L-11.64 4.772a2.774 2.774 0 0 0-1.4-1.983 2.72 2.72 0 0 0-2.41-.103c-9.296 4.108-15.495 16.108-18.693 23.99l-3.832-10.162a2.755 2.755 0 0 0-1.992-1.725 2.728 2.728 0 0 0-2.516.751c-7.77 7.848-10.88 16.306-12.125 21.882l-6.581-7.329a2.731 2.731 0 0 0-4.421.493c-5.508 9.79-7.108 16.556-6.112 25.855a49.187 49.187 0 0 0 13.151 28.575c-1.967 7.24-7.887 12.169-7.945 12.217a2.79 2.79 0 0 0-.926 2.895 2.755 2.755 0 0 0 2.26 2.011 19.52 19.52 0 0 0 2.786.197c7.936 0 15.05-4.625 18.039-6.873a49.52 49.52 0 0 0 5.373 2.246v7.434c0 4.743 3.598 8.629 8.192 8.847a8.5 8.5 0 0 0 6.35-2.392 8.771 8.771 0 0 0 2.665-6.288v-4.85h5.524v4.683c0 4.742 3.598 8.629 8.191 8.847a8.503 8.503 0 0 0 6.351-2.392 8.773 8.773 0 0 0 2.665-6.288v-4.85h5.524v4.682c0 4.743 3.598 8.629 8.19 8.848a8.499 8.499 0 0 0 6.352-2.393 8.771 8.771 0 0 0 2.665-6.288v-4.849h5.521v4.682c0 4.743 3.599 8.629 8.192 8.847a8.479 8.479 0 0 0 6.35-2.392 8.772 8.772 0 0 0 2.666-6.288v-5.059c11.141-.978 22.02-5.142 31.619-12.125 8.103-5.894 12.422-11.692 12.46-11.747a2.792 2.792 0 0 0 .398-2.376zm-149.05 22.25c1.435-1.924 2.906-4.321 3.997-7.099a49.137 49.137 0 0 0 4.472 3.289c-2.128 1.37-5.133 2.988-8.468 3.81zm11.45-8.473a43.636 43.636 0 0 1-19.553-31.936c-.749-6.988.174-12.182 3.617-19.114l7.919 8.818a2.725 2.725 0 0 0 3.013.723 2.778 2.778 0 0 0 1.766-2.577c0-.116.175-10.639 8.438-20.967l4.882 12.945a2.74 2.74 0 0 0 2.681 1.783 2.752 2.752 0 0 0 2.524-2.005c.016-.057 1.653-5.757 4.81-12.1 3.13-6.291 6.611-10.944 10.21-13.686l3.124 18.93a2.758 2.758 0 0 0 2.422 2.301 2.743 2.743 0 0 0 2.843-1.743c.064-.163 5.972-15.055 17.259-22.14l2.592 15.056a2.76 2.76 0 0 0 2.183 2.247 2.734 2.734 0 0 0 2.856-1.261c.072-.117 6.765-10.836 18.267-14.824l1.785 15.323a2.765 2.765 0 0 0 1.888 2.317 2.728 2.728 0 0 0 2.87-.775c.065-.072 6.041-6.55 18.134-6.034a43.063 43.063 0 0 0-2.476 24.031c-7.714-1.96-13.811-.065-17.445 1.76-1.792-4.738-6.339-8.113-11.653-8.113-6.874 0-12.467 5.649-12.467 12.592 0 2.508.73 4.847 1.985 6.812-6.673.092-15.73.634-25.003 2.451-22.468 4.404-36.006 14.455-39.471 29.186zm42.17 17.531a3.13 3.13 0 0 1-.964 2.275c-.62.599-1.44.909-2.301.865-1.631-.078-2.958-1.561-2.958-3.307v-4.682h6.224v4.849zm45.461 0a3.13 3.13 0 0 1-.964 2.275 3.075 3.075 0 0 1-2.302.865c-1.631-.078-2.958-1.561-2.958-3.307v-4.691l6.224-.019v4.877zm2.669-10.432l-22.653.036c-1.517 0-2.746 1.242-2.746 2.773v7.623a3.13 3.13 0 0 1-.964 2.275c-.621.599-1.441.907-2.302.865-1.63-.078-2.958-1.561-2.958-3.307v-7.456c0-1.531-1.229-2.773-2.746-2.773h-31.999c-.496 0-1.035-.011-1.644-.034a2.723 2.723 0 0 0-2.007.774 2.787 2.787 0 0 0-.84 1.997v7.659c0 .867-.343 1.675-.965 2.275a3.063 3.063 0 0 1-2.301.864c-1.631-.077-2.958-1.56-2.958-3.306v-9.452a2.77 2.77 0 0 0-1.956-2.656 44.09 44.09 0 0 1-6.234-2.424c5.343-30.637 59.905-29.19 68.571-28.762.446.05.9.075 1.358.075 1.476 0 2.689-1.18 2.744-2.67.055-1.49-1.066-2.758-2.538-2.87a58.98 58.98 0 0 0-1.155-.073c-3.399-.47-6.026-3.42-6.026-6.98 0-3.885 3.129-7.046 6.975-7.046 3.847 0 6.976 3.16 6.976 7.046 0 1.078.625 2.052 1.592 2.508a2.735 2.735 0 0 0 2.931-.394c.325-.275 7.87-6.5 19.276-1.994a41.415 41.415 0 0 0 8.147 13.892c4.534 5.096 10.101 9.27 16.586 12.438-5.233 5.603-19.246 18.191-40.164 19.097z" fill="#DBDBDB"/><path d="M52.36 67.405c1.516 0 2.745-1.241 2.745-2.773s-1.23-2.774-2.746-2.774-2.746 1.242-2.746 2.774 1.23 2.773 2.746 2.773z" fill="#DBDBDB"/></svg><svg width="25" height="31" fill="none" id="knowledge" y="1328"><path d="M21.457.305H4.065C2.152.305.587 1.826.587 3.686V30.74l12.174-5.072 12.174 5.072V3.686c0-1.86-1.565-3.381-3.478-3.381z" fill="#fff"/></svg><svg width="180" id="logo-2" height="53" y="1359"><style>#logo-2-icon-logo path{fill:#41688c}</style><path d="M3.037 0c.706 0 1.271.07 1.765.21.495.14.848.351 1.13.632.283.28.495.56.636.911.141.35.212.772.212 1.192 0 .491-.07.912-.212 1.263-.141.42-.353.7-.706 1.052-.283.28-.707.49-1.2.7-.495.141-1.06.281-1.766.281H2.4c-.141 0-.282 0-.494-.07v2.455c0 .28-.07.42-.141.42-.071.07-.283.07-.495.07H.636c-.212 0-.424 0-.495-.07-.07-.07-.141-.21-.141-.42V.56c0-.28.07-.42.141-.42C.211.07.424.07.636.07L3.036 0zm-.283 4.558c.424 0 .707-.07.989-.14.282-.07.494-.21.636-.35.14-.14.282-.281.353-.492.07-.21.07-.35.07-.63 0-.421-.14-.772-.423-.982-.283-.21-.777-.351-1.413-.351h-.918v2.875c.141 0 .283 0 .424.07h.282z" transform="translate(38.261 12.537)" fill="currentColor"/><path d="M5.608 5.89c-.211.562-.423.982-.635 1.403-.212.421-.353.702-.565.982-.212.28-.424.42-.706.561-.283.14-.565.21-.918.21-.283 0-.565 0-.777-.07-.212-.07-.424-.07-.565-.14-.07-.07-.212-.14-.283-.21-.07-.07-.07-.21 0-.421l.212-.631c.07-.14.141-.28.141-.35.071-.071.212-.071.353 0 .071 0 .142.07.283.07s.282.07.353.07c.212 0 .353-.07.494-.14.142-.141.212-.281.283-.562L.1.702C.03.56-.041.35.03.21.03.07.17 0 .452 0h1.13c.141 0 .282 0 .353.07.07.07.141.14.283.35L4.337 4.98 5.75.421c.07-.14.14-.28.212-.35C6.032 0 6.173 0 6.315 0h.988c.142 0 .212 0 .283.07.07.07.141.07.141.14v.21c0 .07-.07.141-.07.211l-2.049 5.26z" transform="translate(45.294 12.677)" fill="currentColor"/><path d="M7.98 1.613c0 .14 0 .28-.07.42-.07.14-.142.281-.212.351-.07.07-.212.07-.353 0-.424-.21-.848-.35-1.2-.49a6.262 6.262 0 0 0-1.201-.14c-.424 0-.777.07-1.13.21-.353.14-.636.28-.918.56-.283.211-.424.562-.636.912-.141.35-.212.842-.212 1.333 0 .56.07.981.212 1.402.141.421.353.701.636.982.282.28.565.42.847.561.353.14.706.21 1.06.21.423 0 .847-.07 1.27-.14.424-.07.848-.21 1.201-.42.07-.07.212-.07.283-.07.07 0 .14.07.211.21l.283.56c.07.14.07.281.07.351-.07.14-.14.21-.211.28-.495.281-1.06.562-1.625.632-.565.14-1.059.14-1.624.14-.636 0-1.271-.07-1.836-.28-.565-.21-1.06-.491-1.483-.912-.424-.42-.706-.912-.989-1.473A6.569 6.569 0 0 1 0 4.7c0-.702.07-1.333.282-1.894.212-.56.495-1.052.919-1.473.423-.42.918-.771 1.483-.981A5.942 5.942 0 0 1 4.732 0c.353 0 .635 0 1.059.07.353.07.706.14.989.21.282.14.565.281.777.421.353.35.423.631.423.912z" transform="translate(53.444 12.186)" fill="currentColor"/><path d="M7.98 1.613c0 .14 0 .28-.07.42-.07.14-.142.281-.212.351-.07.07-.212.07-.353 0-.424-.21-.848-.35-1.2-.49a6.262 6.262 0 0 0-1.201-.14c-.424 0-.777.07-1.13.21-.353.14-.636.28-.918.56-.283.211-.424.562-.636.912-.141.35-.212.842-.212 1.333 0 .56.07.981.212 1.402.141.421.353.701.636.982.282.28.565.42.847.561.353.14.706.21 1.06.21.423 0 .847-.07 1.27-.14.424-.07.848-.21 1.201-.42.07-.07.212-.07.283-.07.07 0 .14.07.211.21l.283.56c.07.14.07.281.07.351-.07.14-.14.21-.211.28-.495.281-1.06.562-1.625.632-.565.14-1.059.14-1.624.14-.636 0-1.271-.07-1.836-.28-.565-.21-1.06-.491-1.483-.912-.424-.42-.706-.912-.989-1.473A6.569 6.569 0 0 1 0 4.7c0-.702.07-1.333.282-1.894.212-.56.495-1.052.919-1.473.423-.42.918-.771 1.483-.981A5.942 5.942 0 0 1 4.732 0c.353 0 .635 0 1.059.07.353.07.706.14.989.21.282.14.565.281.777.421.353.35.423.631.423.912z" transform="translate(62.202 12.186)" fill="currentColor"/><path d="M1.907 3.647h1.06L4.801.35c.071-.14.212-.21.283-.28C5.155 0 5.367 0 5.579 0h.848c.212 0 .353.07.423.14.071.07.071.28-.07.421L4.45 4.348l2.824 4.137c.07.14.141.28.07.421-.07.14-.14.21-.282.21h-1.13c-.141 0-.282 0-.423-.07-.142 0-.212-.14-.354-.28L3.178 5.68c-.07-.14-.212-.28-.282-.28-.142-.07-.212-.07-.424-.07h-.565v3.296c0 .28-.07.42-.141.42-.071.07-.283.07-.495.07H.636c-.212 0-.424 0-.495-.07-.07-.07-.141-.21-.141-.42V.56c0-.28.07-.42.141-.42C.211.07.424.07.636.07h.635c.212 0 .353 0 .495.07.07.07.14.21.14.42v3.086z" transform="translate(71.807 12.537)" fill="currentColor"/><path d="M2.048 5.4l-.141 1.262.565-1.122L5.792.561c.14-.14.21-.28.352-.42C6.285 0 6.427 0 6.64 0h.706c.212 0 .423 0 .494.07.07.07.141.21.141.42v8.066c0 .28-.07.42-.14.42-.072.07-.283.07-.495.07h-.636c-.212 0-.353 0-.494-.07-.07-.07-.141-.21-.141-.42v-4.98-.21-.42c0-.14 0-.281.07-.421v-.21L5.65 3.435l-3.531 5.26c-.07.07-.142.21-.283.28-.07.07-.212.14-.424.14H.636c-.212 0-.354 0-.495-.07-.07-.07-.141-.21-.141-.42V.56c0-.28.07-.42.141-.42C.211.07.424.07.636.07h.706c.212 0 .424 0 .494.07s.141.21.141.42L2.048 5.4z" transform="translate(80.352 12.537)" fill="currentColor"/><path d="M1.907 5.19v2.103h3.602c.282 0 .423.07.423.14.07.07.07.281.07.491v.491c0 .21 0 .35-.07.491-.07.07-.212.14-.423.14H.636c-.212 0-.424 0-.495-.07-.07-.07-.141-.21-.141-.42V.49C0 .21.07.07.141.07.211 0 .424 0 .636 0h4.873c.282 0 .423.07.423.14s.07.28.07.491v.491c0 .21 0 .35-.07.49-.07.071-.212.141-.423.141H1.907v1.894h2.825c.282 0 .423.07.423.14.071.07.071.28.071.49v.492c0 .21 0 .35-.07.49-.071.07-.212.14-.424.14l-2.825-.21z" transform="translate(90.945 12.537)" fill="currentColor"/><path d="M1.907 5.4l-.141 1.262.565-1.122L5.65.561c.141-.14.212-.28.353-.42C6.144 0 6.285 0 6.497 0h.707c.211 0 .423 0 .494.07.07.07.141.21.141.42v8.066c0 .28-.07.42-.141.42-.07.07-.283.07-.495.07h-.635c-.212 0-.353 0-.494-.07-.142-.07-.142-.21-.142-.42v-4.98-.21c0-.14 0-.28.07-.42 0-.14 0-.281.072-.421v-.21L5.65 3.365l-3.531 5.26c-.071.07-.142.21-.283.28-.07.07-.212.14-.424.14H.636c-.212 0-.354 0-.495-.07-.07-.07-.141-.21-.141-.42V.49C0 .21.07.07.141.07.211 0 .424 0 .636 0h.706c.212 0 .424 0 .494.07s.141.21.141.42l-.07 4.91z" transform="translate(38.331 28.175)" fill="currentColor"/><path d="M7.84 8.556c0 .28-.072.42-.142.42-.07.07-.283.07-.495.07h-.706c-.212 0-.423 0-.494-.07-.07-.07-.141-.21-.141-.42V5.26H1.907v3.296c0 .28-.07.42-.141.42-.071.07-.283.07-.495.07H.636c-.212 0-.424 0-.495-.07-.07-.07-.141-.21-.141-.42V.49C0 .21.07.07.141.07.211 0 .424 0 .636 0h.635c.212 0 .353 0 .495.07.07.07.14.21.14.42v3.086h3.956V.491c0-.28.07-.42.14-.42C6.075 0 6.286 0 6.498 0h.707c.211 0 .353 0 .494.07.07.07.141.21.141.42v8.066z" transform="translate(48.783 28.175)" fill="currentColor"/><path d="M5.862 9.257c0 .28-.07.42-.142.42-.07.07-.282.07-.494.07H4.59c-.211 0-.423 0-.494-.07-.07-.07-.141-.21-.141-.42v-.631c-.706 0-1.271-.07-1.766-.28a4.01 4.01 0 0 1-1.27-.842C.564 7.153.352 6.732.211 6.31A5.304 5.304 0 0 1 0 4.84c0-.561.07-1.052.282-1.543.142-.49.424-.842.777-1.192a4.01 4.01 0 0 1 1.272-.842c.494-.21 1.059-.28 1.694-.28V.49c0-.28.071-.42.142-.42C4.237 0 4.449 0 4.66 0h.636c.212 0 .353 0 .494.07.07.07.141.21.141.42v.492c.636 0 1.271.07 1.766.28.494.21.918.491 1.271.842.353.35.565.771.777 1.192.141.49.282.912.282 1.473 0 .56-.07 1.052-.282 1.542-.141.491-.424.842-.777 1.193-.353.35-.777.63-1.271.771-.495.21-1.06.28-1.695.28v.702h-.141zM1.907 4.769c0 .63.141 1.192.494 1.613.353.42.918.63 1.624.7V2.455c-.423 0-.776.07-1.059.21-.282.141-.494.281-.635.562-.142.21-.283.42-.354.701 0 .28-.07.561-.07.842zM5.79 7.083c.424 0 .777-.14 1.06-.21.282-.14.494-.281.635-.491.141-.21.282-.421.353-.702.07-.28.07-.56.07-.841 0-.702-.14-1.192-.494-1.613-.353-.42-.918-.631-1.624-.701v4.558z" transform="translate(58.459 27.544)" fill="currentColor"/><path d="M0 4.839c0-.631.07-1.263.282-1.824a6.585 6.585 0 0 1 .848-1.542C1.554 1.052 1.977.7 2.613.42 3.178.14 3.884 0 4.732 0A6.7 6.7 0 0 1 6.85.35c.565.281 1.06.632 1.483 1.053.424.42.707.911.848 1.542.212.561.282 1.193.282 1.824 0 .63-.07 1.262-.282 1.823a6.584 6.584 0 0 1-.848 1.543c-.423.42-.918.771-1.483 1.052-.565.28-1.27.42-2.118.42a6.7 6.7 0 0 1-2.119-.35A5.655 5.655 0 0 1 1.13 8.205a3.025 3.025 0 0 1-.848-1.543C.142 6.031 0 5.47 0 4.84zm7.486-.07c0-.421-.07-.842-.141-1.193-.141-.35-.283-.7-.495-.981a1.927 1.927 0 0 0-.847-.631 3.32 3.32 0 0 0-1.2-.21c-.424 0-.848.07-1.201.21-.353.14-.636.35-.848.63-.212.281-.423.632-.494.982-.141.351-.141.772-.141 1.193 0 .42.07.841.14 1.192.142.35.283.701.495.982.212.28.495.49.848.63.353.141.777.211 1.2.211.495 0 .848-.07 1.2-.21.354-.14.637-.35.848-.631.212-.28.424-.632.495-.982.141-.35.141-.701.141-1.192z" transform="translate(69.405 27.824)" fill="currentColor"/><path d="M3.037 0c.706 0 1.271.07 1.765.21.495.14.848.351 1.13.632.283.28.495.56.636.911.141.35.212.772.212 1.192 0 .491-.07.912-.212 1.263-.141.42-.353.7-.706 1.052-.283.28-.707.49-1.2.7-.495.141-1.06.281-1.766.281H2.4c-.212 0-.282 0-.494-.07v2.455c0 .28-.07.42-.141.42-.071 0-.283.07-.495.07H.636c-.212 0-.424 0-.495-.07-.07-.07-.141-.21-.141-.42V.56c0-.28.07-.42.141-.42C.211.07.424.07.636.07L3.036 0zm-.353 4.558c.423 0 .706-.07.988-.14.283-.07.495-.21.636-.35.141-.14.282-.281.353-.492.07-.21.07-.35.07-.63 0-.421-.14-.772-.423-.982-.283-.21-.777-.351-1.412-.351h-.919v2.875c.142 0 .283 0 .424.07h.283z" transform="translate(80.705 28.035)" fill="currentColor"/><path d="M4.661 8.906c-.141 0-.282 0-.424-.07a.749.749 0 0 1-.212-.35L2.12 3.856l-.353-1.262.14 1.402-.07 4.629c0 .28-.07.42-.141.42-.07.07-.212.07-.494.07H.636c-.212 0-.424 0-.495-.07-.07-.07-.141-.21-.141-.42L.282.63c0-.21.071-.42.212-.49C.636.07.777 0 1.06 0h.777c.212 0 .353.07.424.14.07.07.212.21.282.35l2.543 6.453L7.345.56c.07-.14.141-.21.212-.35.07-.07.211-.14.423-.14h.99c.21 0 .423 0 .493.07.071.07.142.21.142.42l.353 8.065c0 .21 0 .42-.141.42-.071.07-.283.07-.495.07h-.635c-.212 0-.424 0-.495-.07-.07-.07-.141-.21-.141-.42L7.91 3.997l.141-1.472-.424 1.332-1.765 4.628c-.07.14-.142.28-.212.351-.07.07-.212.07-.424.07h-.565z" transform="translate(89.038 28.035)" fill="currentColor"/><path d="M8.386 8.766c.071.21.071.35 0 .42-.07.07-.211.14-.423.14h-.989c-.141 0-.283 0-.353-.07s-.141-.14-.212-.35l-.565-1.613h-3.39L1.89 8.906c-.07.21-.141.28-.212.35-.07.07-.212.07-.353.07H.477c-.212 0-.353-.07-.424-.14-.07-.07-.07-.21 0-.42L3.373.42c.07-.14.14-.28.211-.35C3.654 0 3.796 0 3.937 0h.636c.141 0 .282 0 .353.07.07.07.141.14.212.35l3.248 8.346zm-3.954-5.26l-.354-1.402-.353 1.402-.777 2.244H5.28l-.847-2.244z" transform="translate(100.074 27.824)" fill="currentColor"/><path d="M8.97 10.66c0 .28-.072.42-.142.42-.07.07-.283.07-.495.07h-.282c-.212 0-.424 0-.494-.07-.071-.07-.142-.21-.142-.42V9.045H.635c-.211 0-.353 0-.494-.07-.07-.07-.141-.21-.141-.42V.49C0 .21.07.07.141.07.211 0 .424 0 .636 0h.706c.212 0 .424 0 .494.07s.141.21.141.42v6.873h3.814V.491c0-.28.07-.42.141-.42C6.002 0 6.215 0 6.427 0h.635c.212 0 .424 0 .495.07.07.07.14.21.14.42v6.873h.636c.212 0 .354 0 .495.07.07.07.141.21.141.421v2.805z" transform="translate(109.59 28.105)" fill="currentColor"/><path d="M2.048 5.4l-.141 1.262.565-1.122L5.792.561c.14-.14.21-.28.352-.42C6.285 0 6.427 0 6.64 0h.706c.212 0 .423 0 .494.07.07.07.141.21.141.42v8.066c0 .28-.07.42-.14.42-.072.07-.283.07-.495.07h-.636c-.212 0-.353 0-.494-.07-.07-.07-.141-.21-.141-.42v-4.98-.21-.42c0-.14 0-.281.07-.421v-.21L5.65 3.435l-3.531 5.26c-.07.07-.142.21-.283.28-.07.07-.212.14-.424.14H.636c-.212 0-.354 0-.495-.07-.07-.07-.141-.21-.141-.42V.56c0-.28.07-.42.141-.42C.211.07.424.07.636.07h.706c.212 0 .424 0 .494.07s.141.21.141.42L2.048 5.4z" transform="translate(120.113 28.035)" fill="currentColor"/><path d="M0 4.839c0-.631.07-1.263.282-1.824a6.584 6.584 0 0 1 .848-1.542C1.554 1.052 2.048.7 2.613.42 3.178.14 3.884 0 4.732 0A6.7 6.7 0 0 1 6.85.35c.565.281 1.06.632 1.483 1.053.424.42.707.911.848 1.542.212.561.282 1.193.282 1.824 0 .63-.07 1.262-.282 1.823a6.584 6.584 0 0 1-.848 1.543c-.423.42-.847.771-1.483 1.052-.565.28-1.27.42-2.118.42a6.7 6.7 0 0 1-2.119-.35A5.655 5.655 0 0 1 1.13 8.205a3.116 3.116 0 0 1-.848-1.473A6.16 6.16 0 0 1 0 4.84zm7.415 0c0-.421-.07-.842-.14-1.192-.142-.351-.283-.702-.495-.982a1.927 1.927 0 0 0-.848-.631 3.32 3.32 0 0 0-1.2-.21c-.495 0-.848.07-1.2.21-.354.14-.636.35-.848.63-.212.281-.424.632-.495.983-.141.35-.141.771-.141 1.192 0 .42.07.841.141 1.192.142.35.283.701.495.982.212.28.494.49.847.63.353.141.777.211 1.2.211.495 0 .848-.07 1.201-.21.353-.14.636-.35.848-.631.212-.28.423-.631.494-.982.141-.42.212-.771.141-1.192z" transform="translate(130 27.684)" fill="currentColor"/><path d="M7.84 8.556c0 .28-.072.42-.142.42-.07.07-.283.07-.495.07h-.706c-.212 0-.423 0-.494-.07-.07-.07-.141-.21-.141-.42V5.26H1.907v3.296c0 .28-.07.42-.141.42-.071.07-.283.07-.495.07H.636c-.212 0-.424 0-.495-.07-.07-.07-.141-.21-.141-.42V.49C0 .21.07.07.141.07.211 0 .424 0 .636 0h.635c.212 0 .353 0 .495.07.07.07.14.21.14.42v3.086h3.956V.491c0-.28.07-.42.14-.42C6.075 0 6.286 0 6.498 0h.707c.211 0 .353 0 .494.07.07.07.141.21.141.42v8.066z" transform="translate(141.229 27.965)" fill="currentColor"/><path d="M7.84 8.556c0 .28-.072.42-.142.42-.07.07-.283.07-.495.07h-.706c-.212 0-.423 0-.494-.07-.07-.07-.141-.21-.141-.42V5.26H1.907v3.296c0 .28-.07.42-.141.42-.071.07-.283.07-.495.07H.636c-.212 0-.424 0-.495-.07-.07-.07-.141-.21-.141-.42V.49C0 .21.07.07.141.07.211 0 .424 0 .636 0h.635c.212 0 .353 0 .495.07.07.07.14.21.14.42v3.086h3.956V.491c0-.28.07-.42.14-.42C6.075 0 6.286 0 6.498 0h.707c.211 0 .353 0 .494.07.07.07.141.21.141.42v8.066z" transform="translate(151.61 27.965)" fill="currentColor"/><path d="M.636 9.117c-.212 0-.424 0-.495-.07C.071 8.976 0 8.835 0 8.625V.56c0-.28.07-.42.141-.42C.211.07.424.07.636.07h.635c.212 0 .353 0 .495.07.07.07.14.21.14.42v2.665c.142 0 .354-.07.566-.07.212 0 .424-.07.565-.07.635 0 1.2.07 1.624.21.424.14.848.35 1.13.631.283.28.494.561.636.912.14.35.212.771.212 1.192 0 .35-.071.771-.142 1.122-.141.35-.282.701-.565.982-.282.28-.635.56-1.13.701-.494.14-1.059.28-1.765.28H.636zm2.26-4.348h-.424c-.212 0-.353.07-.495.07v2.594h.919c.635 0 1.13-.14 1.341-.35.283-.28.424-.631.424-1.052 0-.35-.141-.631-.353-.912-.353-.21-.777-.35-1.412-.35zm6.567 3.787c0 .28-.07.42-.14.42-.071.07-.283.07-.495.07h-.706c-.212 0-.424 0-.495-.07-.07-.07-.141-.21-.141-.42V.49c0-.28.07-.42.141-.42C7.697 0 7.91 0 8.122 0h.635c.212 0 .353 0 .495.07.07.07.14.21.14.42l.071 8.066z" transform="translate(161.992 27.895)" fill="currentColor"/><path d="M1.907 5.19v2.103h3.602c.282 0 .423.07.423.14.07.07.07.281.07.491v.491c0 .21 0 .35-.07.491-.07.07-.212.14-.423.14H.636c-.212 0-.424 0-.495-.07-.07-.07-.141-.21-.141-.42V.49C0 .21.07.07.141.07.211 0 .424 0 .636 0h4.873c.282 0 .423.07.423.14s.07.28.07.491v.491c0 .21 0 .35-.07.49-.07.071-.212.141-.423.141H1.907v1.894h2.825c.282 0 .423.07.423.14.071.07.071.28.071.49v.492c0 .21 0 .35-.07.49-.071.07-.212.14-.424.14l-2.825-.21z" transform="translate(173.998 27.965)" fill="currentColor"/><path d="M4.802 1.823v6.803c0 .28-.07.42-.14.42-.072.07-.283.07-.495.07H3.53c-.212 0-.424 0-.494-.07s-.141-.21-.141-.42V1.823H.494c-.282 0-.423-.07-.423-.14C0 1.613 0 1.403 0 1.193V.63c0-.21 0-.42.07-.49C.142.07.283 0 .495 0h6.71c.282 0 .423.07.423.14.07.07.07.28.07.491v.561c0 .21 0 .35-.07.491 0 .07-.141.14-.423.14H4.801z" transform="translate(36.99 43.743)" fill="currentColor"/><path d="M1.907 5.26v2.103h3.602c.282 0 .423.07.423.14.07.07.07.281.07.492v.49c0 .21 0 .351-.07.491-.07.07-.212.14-.423.14H.636c-.212 0-.424 0-.495-.07-.07-.07-.141-.21-.141-.49V.49C0 .21.07.07.141.07.211 0 .424 0 .636 0h4.873c.282 0 .423.07.423.14.07.07.07.28.07.491v.491c0 .21 0 .35-.07.49-.07.071-.212.141-.423.141H1.907v1.894h2.825c.282 0 .423.07.423.14.071.07.071.28.071.49v.351c0 .21 0 .351-.07.491-.071.07-.212.14-.424.14H1.907z" transform="translate(45.888 43.743)" fill="currentColor"/><path d="M7.885 8.415c.071.07.071.14.142.21 0 .07.07.14 0 .211 0 .07-.07.14-.142.14-.07.07-.211.07-.353.07h-1.2c-.141 0-.283 0-.353-.07s-.212-.14-.283-.28L3.86 5.89 2.165 8.696c-.07.14-.212.28-.282.35-.071.07-.212.07-.354.07H.47c-.212 0-.353-.07-.424-.14-.07-.14-.07-.28.071-.49l2.754-3.998L.188.701C.117.561.046.421.117.281.117.14.258.07.47.07h1.271c.142 0 .283 0 .424.07a.55.55 0 0 1 .283.28l1.624 2.594L5.626.351c.07-.14.211-.28.282-.28.07 0 .212-.071.353-.071h1.06c.211 0 .353.07.423.21.07.14 0 .28-.141.491L5.061 4.278l2.824 4.137z" transform="translate(52.763 43.673)" fill="currentColor"/><path d="M7.84 8.556c0 .28-.072.42-.142.42-.07.07-.283.07-.495.07h-.706c-.212 0-.423 0-.494-.07-.07-.07-.141-.21-.141-.42V5.26H1.907v3.296c0 .28-.07.42-.141.42-.071.07-.283.07-.495.07H.636c-.212 0-.424 0-.495-.07-.07-.07-.141-.21-.141-.42V.49C0 .21.07.07.141.07.211 0 .424 0 .636 0h.635c.212 0 .353 0 .495.07.07.07.14.21.14.42v3.086h3.956V.491c0-.28.07-.42.14-.42C6.075 0 6.216 0 6.498 0h.707c.211 0 .353 0 .494.07.07.07.141.21.141.42v8.066z" transform="translate(62.273 43.743)" fill="currentColor"/><path d="M0 4.839c0-.631.07-1.263.282-1.824a6.584 6.584 0 0 1 .848-1.542C1.554 1.052 2.048.7 2.613.42 3.178.14 3.884 0 4.732 0A6.7 6.7 0 0 1 6.85.35c.565.281 1.06.632 1.483 1.053.424.42.707.911.848 1.542.141.631.282 1.193.282 1.824 0 .63-.07 1.262-.282 1.823a6.585 6.585 0 0 1-.848 1.543c-.423.42-.847.771-1.483 1.052-.565.28-1.27.42-2.118.42a6.7 6.7 0 0 1-2.119-.35A5.655 5.655 0 0 1 1.13 8.205a3.025 3.025 0 0 1-.848-1.543A5.458 5.458 0 0 1 0 4.84zm7.486 0c0-.421-.07-.842-.141-1.192-.141-.351-.283-.702-.495-.982a1.927 1.927 0 0 0-.847-.631 3.32 3.32 0 0 0-1.2-.21c-.424 0-.848.07-1.201.21-.353.14-.636.35-.848.63-.212.281-.423.632-.494.983-.141.35-.141.771-.141 1.192 0 .42.07.841.14 1.192.142.35.283.701.495.982.212.28.495.49.848.63.353.141.777.211 1.2.211.424 0 .848-.07 1.2-.21.354-.14.637-.35.848-.631.212-.28.424-.631.495-.982.07-.42.141-.771.141-1.192z" transform="translate(71.948 43.393)" fill="currentColor"/><path d="M4.025 1.683c-.07 1.332-.14 2.455-.282 3.366-.141.982-.282 1.753-.494 2.314-.212.631-.495 1.052-.848 1.333-.353.28-.777.42-1.271.42H.706c-.141 0-.282-.07-.353-.07-.07 0-.07 0-.141-.07-.07 0-.07-.07-.141-.07 0-.07-.071-.07-.071-.14v-.28l.141-.772c0-.21.07-.28.141-.28.071 0 .212 0 .424-.07.212 0 .424-.07.565-.281.141-.14.353-.491.424-.982.141-.49.212-1.192.353-2.104.07-.911.141-2.104.141-3.506 0-.28.07-.42.142-.42C2.4 0 2.613 0 2.825 0h4.873c.212 0 .353 0 .494.07.07.07.141.21.141.42v8.066c0 .28-.07.42-.14.42-.071.07-.283.07-.495.07h-.706c-.212 0-.424 0-.495-.07-.07-.07-.141-.21-.141-.42V1.683h-2.33z" transform="translate(81.765 43.673)" fill="currentColor"/><path d="M0 4.839c0-.631.07-1.263.282-1.824a6.584 6.584 0 0 1 .848-1.542C1.554 1.052 2.048.7 2.613.42 3.178.14 3.884 0 4.732 0A6.7 6.7 0 0 1 6.85.35c.565.281 1.06.632 1.483 1.053.424.42.707.911.848 1.542.212.561.282 1.193.282 1.824 0 .63-.07 1.262-.282 1.823a6.584 6.584 0 0 1-.848 1.543c-.423.42-.847.771-1.483 1.052-.565.28-1.27.42-2.118.42a6.7 6.7 0 0 1-2.119-.35A5.655 5.655 0 0 1 1.13 8.205a3.024 3.024 0 0 1-.848-1.543C.071 6.102 0 5.47 0 4.84zm7.486 0c0-.421-.07-.842-.141-1.192-.141-.351-.283-.702-.495-.982a1.927 1.927 0 0 0-.847-.631 3.32 3.32 0 0 0-1.2-.21c-.495 0-.848.07-1.201.21-.353.14-.636.35-.848.63-.212.281-.423.632-.494.983-.141.35-.141.771-.141 1.192 0 .42.07.841.14 1.192.142.35.283.701.495.982.212.28.495.49.848.63.353.141.777.211 1.2.211.495 0 .848-.07 1.2-.21.354-.14.637-.35.848-.631.212-.28.424-.631.495-.982.07-.35.141-.771.141-1.192z" transform="translate(92.005 43.322)" fill="currentColor"/><path d="M1.907 8.556c0 .28-.07.42-.141.42-.071.07-.283.07-.495.07H.636c-.212 0-.424 0-.495-.07-.07-.07-.141-.21-.141-.42V.49C0 .21.07.07.141.07.211 0 .424 0 .636 0h4.731c.283 0 .424.07.424.14.07.07.07.28.07.491v.491c0 .21 0 .35-.07.49-.07.071-.212.141-.424.141h-3.46v6.803z" transform="translate(103.304 43.603)" fill="currentColor"/><path d="M2.048 5.4l-.141 1.262.565-1.122L5.79.561c.141-.14.212-.28.353-.42C6.285 0 6.427 0 6.64 0h.706c.212 0 .423 0 .494.07.07.07.141.21.141.42v8.066c0 .28-.07.42-.14.42-.072.07-.283.07-.495.07h-.636c-.212 0-.353 0-.494-.07-.07-.07-.141-.21-.141-.42v-4.98-.21-.42c0-.14 0-.281.07-.421v-.21L5.65 3.435l-3.531 5.26c-.071.07-.142.21-.283.28-.07.07-.212.14-.424.14H.636c-.212 0-.354 0-.495-.07-.07-.07-.141-.21-.141-.42V.56c0-.28.07-.42.141-.42C.211.07.424.07.636.07h.706c.212 0 .424 0 .494.07s.141.21.141.42L2.048 5.4z" transform="translate(110.296 43.673)" fill="currentColor"/><path d="M2.048 5.4l-.141 1.262.565-1.122L5.792.561c.14-.14.21-.28.352-.42C6.285 0 6.427 0 6.64 0h.706c.212 0 .423 0 .494.07.07.07.141.21.141.42v8.066c0 .28-.07.42-.14.42-.072.07-.283.07-.495.07h-.636c-.212 0-.353 0-.494-.07-.07-.07-.141-.21-.141-.42v-4.98-.21-.42c0-.14 0-.281.07-.421v-.21L5.65 3.435l-3.531 5.26c-.071.07-.142.21-.283.28-.07.07-.212.14-.424.14H.636c-.212 0-.354 0-.495-.07-.07-.07-.141-.21-.141-.42V.56c0-.28.07-.42.141-.42C.211.07.424.07.636.07h.706c.212 0 .424 0 .494.07s.141.21.141.42L2.048 5.4z" transform="translate(120.748 43.603)" fill="currentColor"/><path d="M.056.012c-.353 2.524.918 7.363 5.438 5.54h.14C6.27 2.466 3.305-.198.057.012z" transform="translate(4.165 1.655)" fill="currentColor"/><path d="M0 13.659C1.06 4.472 6.285.194 6.285.194s2.048-.701 3.46.561C2.685 3.981.636 13.378.636 13.378s-.282.561-.635.28z" transform="translate(9.305)" fill="currentColor"/><path d="M10.236 19.19c1.695.21 3.39.14 5.155-.28 7.063-1.753 11.794-7.363 10.1-12.342-.212-.632-.707-1.894-2.331-3.226C20.97 1.518 17.58.326 15.815.116c-1.624-.21-3.813-.07-3.672-.07-.212.07-.424.35-.353.35 4.237-.49 5.932.982 6.638 1.964 2.119 2.805-1.907 8.415-8.333 9.678-.495.14-1.06.28-1.695.28-5.297.42-8.828-3.015-5.65-7.293h.141v.14c-.565.982-.777 1.894-.424 2.875.777 2.104 4.238 2.665 7.698 1.543 0 0 6.921-2.174 5.156-6.311-.636-1.473-2.543-1.683-4.308-1.193-.07 0-.424.421-.353.421.494-.14 1.483 3.366-2.33 4.91-1.978.77-3.673.56-4.309-.492-.847-1.262.353-3.226 3.108-4.979.565-.42.988-.63 1.341-.841l.212-.421c-1.342.42-3.39 1.402-5.79 3.506-.425.28-3.744 3.156-2.684 7.854.988 4.068 5.014 6.733 10.028 7.153z" transform="translate(1.824 8.073)" fill="currentColor"/><path d="M30.28 2.104A6.23 6.23 0 0 0 29.856.7c0-.14-.212-.14-.212 0 .283 5.4-5.014 10.169-11.652 11.852-2.048.49-4.238.63-6.215.35C6.127 12.062.407 8.275 1.184 0 .266 2.104-.158 4.488.054 7.013c.353 6.872 5.508 12.412 11.935 13.675 1.271.28 3.037.49 4.378.42 2.543-.21 5.015-.841 6.992-2.104 9.746-6.1 6.921-16.9 6.921-16.9z" transform="translate(0 17.305)" fill="currentColor"/></svg><svg width="168" height="53" fill="none" id="logo" y="1412"><path d="M45.09 45.6h-2.265c-.133 0-.233.1-.233.233v6.8c0 .134-.1.234-.233.234h-1.231a.228.228 0 0 1-.234-.234v-6.8c0-.133-.1-.233-.233-.233h-2.263a.228.228 0 0 1-.233-.233v-1.033c0-.134.1-.234.233-.234h6.658c.133 0 .233.1.233.234v1.033c.033.166-.067.233-.2.233zM51.248 49.033h-2.497c-.133 0-.233.1-.233.234V51.3c0 .133.1.233.233.233h3.43c.132 0 .232.1.232.234v.9c0 .133-.1.233-.233.233h-5.127a.228.228 0 0 1-.233-.233l-.033-8.267c0-.133.1-.233.233-.233h4.994c.133 0 .233.1.233.233v.9c0 .134-.1.234-.233.234h-3.296c-.133 0-.233.1-.233.233v1.766c0 .134.1.234.233.234h2.497c.133 0 .233.1.233.233v.9c.033.033-.067.133-.2.133zM58.539 48.567l2.497 3.933c.1.133 0 .333-.2.333h-1.498c-.067 0-.133-.033-.2-.1L57.54 50.1c-.1-.133-.3-.133-.366 0l-1.598 2.633c-.033.067-.1.1-.2.1h-1.232c-.166 0-.266-.2-.2-.333l2.398-3.833a.285.285 0 0 0 0-.234L53.878 44.5c-.1-.133 0-.333.2-.333h1.465c.066 0 .133.033.2.1l1.63 2.633c.1.133.3.133.367 0l1.631-2.633c.033-.067.1-.1.2-.1h1.232c.166 0 .266.2.2.333l-2.398 3.867c-.133.033-.133.1-.066.2zM68.226 52.567v-3.334c0-.133-.1-.233-.233-.233h-3.462c-.133 0-.233.1-.233.233v3.334c0 .133-.1.233-.233.233h-1.232a.228.228 0 0 1-.233-.233l-.033-8.267c0-.133.1-.233.233-.233h1.232c.133 0 .233.1.233.233v3.033c0 .134.1.234.233.234h3.462c.133 0 .233-.1.233-.234V44.3c0-.133.1-.233.233-.233h1.232c.133 0 .233.1.233.233l.033 8.267c0 .133-.1.233-.233.233H68.46a.228.228 0 0 1-.233-.233zM75.717 43.9c2.763 0 4.295 2.033 4.295 4.533 0 2.5-1.532 4.534-4.295 4.534s-4.295-2.034-4.295-4.534c0-2.466 1.532-4.533 4.295-4.533zm.033 7.733c1.532 0 2.597-1.166 2.597-3.2 0-2.033-1.099-3.2-2.597-3.2s-2.596 1.134-2.596 3.2c-.034 2.067 1.065 3.2 2.596 3.2zM88.001 52.767H86.67a.228.228 0 0 1-.233-.234v-6.8c0-.133-.1-.233-.233-.233H84.04c-.134 0-.2.1-.233.233-.2 5.867-1.032 6.934-3.263 7.267-.1 0-.2-.033-.233-.167l-.3-.9c-.033-.133.034-.266.167-.3 1.565-.333 1.93-1.533 2.097-7.366 0-.134.1-.234.233-.234h5.493c.1 0 .167.067.167.167l.033 8.4c-.033.1-.1.167-.2.167zM93.994 43.867c2.763 0 4.294 2.033 4.294 4.533 0 2.5-1.531 4.533-4.294 4.533S89.699 50.9 89.699 48.4c0-2.466 1.532-4.533 4.295-4.533zm0 7.733c1.531 0 2.596-1.167 2.596-3.2 0-2.066-1.098-3.2-2.596-3.2-1.532 0-2.597 1.134-2.597 3.2 0 2.067 1.065 3.2 2.597 3.2zM101.318 52.733h-1.232a.228.228 0 0 1-.233-.233l-.033-8.266c0-.134.1-.234.233-.234h4.46c.134 0 .234.1.234.234v.966c0 .134-.1.233-.233.233h-2.763c-.133 0-.233.1-.233.234v6.866c0 .1-.1.2-.2.2zM111.971 44h1.531c.134 0 .234.1.234.234l.033 8.266c0 .133-.1.233-.233.233h-1.232a.228.228 0 0 1-.233-.233v-5.2c0-.233-.3-.3-.4-.1l-3.429 5.433c-.033.067-.1.1-.2.1h-1.53a.228.228 0 0 1-.234-.233l-.033-8.266c0-.134.1-.234.233-.234h1.232c.133 0 .233.1.233.234v5.233c0 .233.3.3.4.1l3.428-5.467c.067-.033.134-.1.2-.1zM121.193 44h1.531c.134 0 .234.1.234.234l.033 8.266c0 .133-.1.233-.233.233h-1.232a.228.228 0 0 1-.233-.233v-5.2c0-.233-.3-.3-.4-.1l-3.429 5.433c-.033.067-.1.1-.2.1h-1.53a.228.228 0 0 1-.234-.233l-.033-8.266c0-.134.1-.234.233-.234h1.232c.133 0 .233.1.233.234v5.233c0 .233.3.3.4.1l3.428-5.467c.067-.066.134-.1.2-.1zM39.696 21.567h-1.265a.228.228 0 0 1-.233-.233l-.033-8.266c0-.134.1-.234.233-.234h2.63c1.531 0 2.996.934 2.996 2.734 0 1.9-1.432 2.766-2.996 2.766h-.933c-.133 0-.233.1-.233.234v2.766c.067.133-.033.233-.166.233zm.233-4.5h.766c1.065 0 1.631-.533 1.631-1.466 0-.933-.566-1.4-1.631-1.4h-.766v2.867zM60.203 13.368l-.366.966a.226.226 0 0 1-.266.133c-.666-.233-1.365-.4-2.13-.4-1.566 0-2.664 1.167-2.664 3.1 0 2.034 1.165 3.034 2.696 3.034.8 0 1.565-.367 2.264-.8a.217.217 0 0 1 .3.066l.466.867c.066.1.033.233-.067.3-.466.333-1.664 1.067-3.13 1.067-2.929 0-4.36-1.9-4.36-4.5 0-2.634 1.498-4.567 4.36-4.567 1.033 0 1.998.167 2.764.467.133.033.167.167.133.267zM68.56 13.368l-.367.966a.226.226 0 0 1-.266.133c-.666-.233-1.365-.4-2.13-.4-1.566 0-2.664 1.167-2.664 3.1 0 2.034 1.165 3.034 2.696 3.034.8 0 1.565-.367 2.264-.8a.217.217 0 0 1 .3.066l.466.867c.066.1.033.233-.067.3-.466.333-1.664 1.067-3.129 1.067-2.93 0-4.361-1.9-4.361-4.5 0-2.634 1.498-4.567 4.361-4.567 1.032 0 1.997.167 2.796.467.1 0 .134.133.1.267zM75.351 21.467c-.067 0-.133-.033-.2-.1l-2.363-3.633h-.833v3.533c0 .134-.1.234-.233.234h-1.265a.228.228 0 0 1-.233-.234l.067-8.266c0-.133.1-.233.233-.233h1.265c.133 0 .233.1.233.233v3.267h.799l2.563-3.4c.034-.067.1-.1.167-.1h1.431c.167 0 .3.2.167.366l-2.797 3.667c-.066.067-.066.166 0 .266l2.763 4.067c.1.133 0 .333-.166.333H75.35zM84.406 12.734h1.531c.133 0 .233.1.233.234l.034 8.266c0 .133-.1.233-.233.233h-1.265a.228.228 0 0 1-.234-.233v-5.2c0-.233-.3-.3-.399-.1l-3.429 5.4c-.033.067-.1.1-.2.1h-1.531a.228.228 0 0 1-.233-.233l-.034-8.267c0-.133.1-.233.234-.233h1.265c.133 0 .233.1.233.233v5.233c0 .234.3.3.4.1l3.428-5.466c.067-.033.133-.067.2-.067zM92.43 17.6h-2.498c-.133 0-.233.1-.233.234v2.033c0 .134.1.234.233.234h3.43c.133 0 .233.1.233.233v.9c0 .133-.1.233-.234.233h-5.126a.228.228 0 0 1-.233-.233l-.034-8.266c0-.134.1-.234.233-.234h4.994c.133 0 .233.1.233.234v.9c0 .133-.1.233-.233.233h-3.296c-.133 0-.233.1-.233.233v1.767c0 .133.1.233.233.233h2.497c.133 0 .233.1.233.234v.9c.033.033-.067.133-.2.133zM52.213 12.834h-1.165c-.1 0-.166.067-.2.134l-1.598 3.566c-.1.2-.166.4-.266.6l-.1.2c-.033.034-.033.1-.066.134l-2.297-4.5a.225.225 0 0 0-.2-.134h-1.332c-.166 0-.266.167-.2.334l3.063 5.9a.285.285 0 0 1 0 .233c-.699 1.033-1.331 1.2-2.197 1.066-.1 0-.166.067-.166.134v.866c0 .1.066.2.166.234 1.731.333 2.83-.067 4.228-2.867l2.53-5.6c.067-.133-.033-.3-.2-.3zM43.924 28.434h1.531c.133 0 .233.1.233.233l.034 8.267c0 .133-.1.233-.233.233h-1.265a.228.228 0 0 1-.234-.233v-5.2c0-.234-.3-.3-.399-.1l-3.429 5.433c-.033.067-.1.1-.2.1h-1.531a.228.228 0 0 1-.233-.233l.033-8.267c0-.133.1-.233.233-.233h1.265c.133 0 .233.1.233.233V33.9c0 .234.3.3.4.1l3.429-5.466c0-.067.066-.1.133-.1zM53.079 36.867v-3.333c0-.134-.1-.234-.233-.234h-3.462c-.133 0-.233.1-.233.234v3.333c0 .133-.1.233-.233.233h-1.265a.228.228 0 0 1-.234-.233l-.033-8.266c0-.134.1-.234.233-.234h1.265c.133 0 .233.1.233.234v3.033c0 .133.1.233.233.233h3.463c.133 0 .233-.1.233-.233V28.6c0-.134.1-.234.233-.234h1.265c.133 0 .233.1.233.234l.033 8.266c0 .133-.1.233-.233.233h-1.265a.228.228 0 0 1-.233-.233zM61.901 35.967v.9c0 .133-.1.233-.233.233h-1.265a.228.228 0 0 1-.233-.233v-.9c0-.067-.067-.133-.166-.167-2.23-.033-3.762-1.1-3.762-3.433 0-2.333 1.498-3.4 3.728-3.433.067 0 .167-.067.167-.167v-.833c0-.1.066-.167.166-.167h1.365c.1 0 .167.067.167.167v.833c0 .067.066.134.166.167 2.23.033 3.729 1.1 3.729 3.433 0 2.333-1.498 3.4-3.729 3.433-.033.034-.1.1-.1.167zm-1.698-5.5c0-.133-.1-.233-.233-.233-1.198.033-2.03.433-2.03 2.133s.832 2.1 2.03 2.133c.133 0 .233-.1.233-.233v-3.8zm1.665 0V34.3c0 .134.1.234.233.234 1.198-.034 2.03-.434 2.03-2.134s-.832-2.1-2.03-2.133c-.133-.033-.233.067-.233.2zM71.622 28.167c2.763 0 4.295 2.033 4.295 4.533 0 2.5-1.532 4.534-4.295 4.534S67.328 35.2 67.328 32.7c0-2.466 1.498-4.533 4.294-4.533zm0 7.733c1.532 0 2.597-1.166 2.597-3.2 0-2.066-1.099-3.2-2.597-3.2-1.531 0-2.597 1.134-2.597 3.2 0 2.067 1.066 3.234 2.597 3.2zM78.98 37.034h-1.265a.228.228 0 0 1-.234-.234l-.033-8.266c0-.133.1-.233.233-.233h2.63c1.532 0 2.996.933 2.996 2.733 0 1.9-1.431 2.766-2.996 2.766h-.932c-.133 0-.233.1-.233.234V36.8c.067.134-.033.234-.166.234zm.233-4.5h.765c1.066 0 1.632-.533 1.632-1.467 0-.933-.566-1.4-1.632-1.4h-.765v2.867zM92.795 36.8l-.233-5.3c0-.233-.333-.3-.433-.066l-1.93 5.433c-.034.1-.1.133-.2.133h-1.132a.225.225 0 0 1-.2-.133l-1.864-5.4c-.067-.233-.4-.167-.433.067l-.266 5.266c0 .134-.1.2-.233.2h-1.032a.228.228 0 0 1-.233-.233l.366-8.266c0-.134.1-.2.233-.2h2.064c.1 0 .166.066.2.133l1.83 5.4c.067.2.333.2.4 0L91.63 28.4c.033-.1.1-.134.2-.134h1.997c.133 0 .2.1.233.2l.4 8.267c0 .133-.1.233-.233.233h-1.265c-.067.033-.167-.033-.167-.167zM100.852 28.434l2.863 8.266c.033.134-.067.3-.2.3h-1.298a.225.225 0 0 1-.2-.133l-.6-1.767c-.033-.1-.1-.133-.2-.133h-2.896c-.1 0-.166.067-.2.133l-.599 1.767c-.033.1-.1.133-.2.133h-1.131c-.167 0-.267-.133-.2-.3l2.83-8.266c.033-.1.1-.133.2-.133h1.664c.067 0 .133.066.167.133zM98.92 33.6h1.63a.216.216 0 0 0 .2-.3l-.765-2.5c-.067-.2-.333-.2-.433 0l-.832 2.5c-.067.167.033.3.2.3zM120.726 28.267h1.532c.133 0 .233.1.233.234l.033 8.266c0 .133-.1.233-.233.233h-1.265a.228.228 0 0 1-.233-.233v-5.2c0-.233-.3-.3-.4-.1l-3.429 5.433c-.033.067-.1.1-.2.1h-1.53a.228.228 0 0 1-.234-.233l-.033-8.266c0-.134.1-.234.233-.234h1.265c.133 0 .233.1.233.234v5.233c0 .233.3.3.4.1l3.429-5.467c.066-.066.133-.1.2-.1zM128.317 28.067c2.763 0 4.294 2.033 4.294 4.533 0 2.5-1.531 4.534-4.294 4.534-2.764 0-4.295-2.034-4.295-4.534s1.531-4.533 4.295-4.533zm.033 7.733c1.531 0 2.597-1.166 2.597-3.2 0-2.033-1.099-3.2-2.597-3.2-1.532 0-2.597 1.134-2.597 3.2-.033 2.034 1.065 3.2 2.597 3.2zM139.77 36.7v-3.333c0-.133-.1-.233-.233-.233h-3.463c-.133 0-.233.1-.233.233V36.7c0 .134-.1.234-.233.234h-1.265a.228.228 0 0 1-.233-.234l-.033-8.266c0-.133.1-.233.233-.233h1.265c.133 0 .233.1.233.233v3.033c0 .134.1.234.233.234h3.462c.134 0 .234-.1.234-.234v-3.033c0-.133.1-.233.233-.233h1.265c.133 0 .233.1.233.233l.033 8.266c0 .134-.1.234-.233.234h-1.265c-.133-.034-.233-.1-.233-.234zM148.825 36.734V33.4c0-.133-.1-.233-.233-.233h-3.463c-.133 0-.233.1-.233.233v3.334c0 .133-.1.233-.233.233h-1.265a.228.228 0 0 1-.233-.233l-.033-8.267c0-.133.1-.233.233-.233h1.265c.133 0 .233.1.233.233V31.5c0 .134.1.234.233.234h3.462c.134 0 .234-.1.234-.234v-3.033c0-.133.1-.233.233-.233h1.265c.133 0 .233.1.233.233l.033 8.267c0 .133-.1.233-.233.233h-1.265c-.133-.033-.233-.133-.233-.233zM153.985 31.267c0 .133.1.233.233.233h.899c1.531 0 3.03.8 3.03 2.7 0 1.8-1.499 2.7-3.03 2.7h-2.564a.228.228 0 0 1-.233-.233l-.033-8.266c0-.134.1-.234.233-.234h1.232c.133 0 .233.1.233.234v2.866zm0 4.367h.766c1.032 0 1.598-.5 1.598-1.4 0-.934-.6-1.4-1.598-1.4h-.766v2.8zm6.492 1.3h-1.265a.228.228 0 0 1-.233-.234l-.034-8.266c0-.133.1-.233.233-.233h1.265c.134 0 .233.1.233.233l.034 8.266c-.034.134-.133.234-.233.234zM166.835 33.1h-2.497c-.133 0-.233.1-.233.234v2.033c0 .133.1.233.233.233h3.43c.132 0 .232.1.232.234v.9c0 .133-.1.233-.233.233h-5.127a.228.228 0 0 1-.233-.233l-.033-8.267c0-.133.1-.233.233-.233h4.994c.133 0 .233.1.233.233v.9c0 .134-.1.234-.233.234h-3.296c-.133 0-.233.1-.233.233V31.6c0 .134.1.234.233.234h2.497c.133 0 .233.1.233.233v.9c.033.033-.067.133-.2.133zM113.469 35.767c0-.133-.067-.2-.167-.233-.066-.034-.2 0-.2 0h-.499c-.233 0-.233-.134-.233-.234V28.501c0-.134-.1-.234-.233-.234h-1.232c-.133 0-.233.1-.233.234v6.8c0 .133-.1.233-.233.233h-3.462a.228.228 0 0 1-.233-.234v-6.8c0-.133-.1-.233-.233-.233h-1.232c-.133 0-.233.1-.233.234l.033 8.266c0 .133.1.233.233.233h6.392c.1 0 .2.067.2.167l.4 1.867c.033.1.1.166.2.166h.865c.133 0 .233-.1.233-.233l-.133-3.2z" fill="#fff"/><path fill-rule="evenodd" clip-rule="evenodd" d="M4.274 1.668c-.366 2.6.932 7.433 5.426 5.6.034-.034.1 0 .133-.034.666-3.066-2.33-5.733-5.56-5.566zM9.334 13.8C10.433 4.502 15.626.202 15.626.202s2.064-.733 3.462.6c-7.09 3.233-9.121 12.7-9.121 12.7s-.234.533-.633.3z" fill="#fff"/><path fill-rule="evenodd" clip-rule="evenodd" d="M12.097 27.467c1.665.2 3.363.134 5.127-.3 7.058-1.8 11.785-7.433 10.154-12.466-.2-.633-.733-1.933-2.33-3.267-2.198-1.833-5.56-3.033-7.324-3.266-1.632-.234-3.829-.1-3.63-.067-.199.1-.399.333-.365.333 4.26-.5 5.925.967 6.658 1.934 2.097 2.8-1.931 8.466-8.356 9.766-.466.133-1.066.267-1.665.267-5.36.566-8.889-2.867-5.726-7.233h.133v.133c-.599.967-.799 1.933-.433 2.867.766 2.133 4.228 2.7 7.69 1.566 0 0 6.959-2.2 5.194-6.4-.632-1.466-2.53-1.666-4.294-1.2-.067.034-.4.434-.367.434.533-.134 1.498 3.433-2.297 4.933-1.964.767-3.628.567-4.294-.5-.866-1.3.366-3.267 3.096-5 .566-.4.999-.667 1.331-.833l.233-.434c-1.331.434-3.395 1.4-5.759 3.534-.4.366-3.729 3.3-2.697 8.033.933 4.066 4.894 6.766 9.921 7.166z" fill="#fff"/><path fill-rule="evenodd" clip-rule="evenodd" d="M30.34 19.6a6.53 6.53 0 0 0-.432-1.366c0-.133-.233-.1-.233 0 .3 5.4-5.027 10.233-11.652 11.966-2.064.534-4.261.634-6.225.334C6.138 29.7.412 25.9 1.21 17.534.312 19.667-.154 22.067.046 24.601c.366 6.9 5.526 12.5 11.918 13.766 1.265.3 3.03.467 4.394.4 2.53-.2 4.994-.833 7.025-2.133 9.754-6.2 6.958-17.033 6.958-17.033z" fill="#fff"/></svg><svg width="35" height="26" fill="none" id="mail" y="1465"><path d="M32.813 0H2.186C.98 0 0 .97 0 2.167v21.666C0 25.03.98 26 2.187 26h30.625C34.02 26 35 25.03 35 23.833V2.167C35 .97 34.02 0 32.812 0zM2.186 8.33l8.396 5.654-8.396 8.318V8.33zm1.547 15.503l8.691-8.608 5.08 3.42 5.05-3.446 8.711 8.632-27.532.002zm29.079-1.531l-8.431-8.35 8.43-5.745v14.095zm0-16.63l-.046-.065L17.5 16.023 2.187 5.713V2.167h30.626v3.505z" fill="#D8595A"/></svg><svg width="37" height="32" id="nav" y="1491"><path fill="#fff" d="M0 0h36.8v3.2H0V0zM0 14.4h36.8v3.2H0v-3.2zM0 28.8h36.8V32H0v-3.2z"/></svg><svg width="30" height="30" fill="none" id="pau-fb" y="1523"><path d="M15 0c8.285 0 15 6.716 15 15 0 8.285-6.715 15-15 15S0 23.285 0 15C0 6.716 6.715 0 15 0z" fill="#D8595A"/><path d="M16.826 10.326h1.934V7.471h-2.273v.01c-2.753.098-3.318 1.645-3.367 3.271h-.006v1.426h-1.875v2.796h1.875v7.497h2.826v-7.497h2.314l.447-2.796h-2.76v-.862c0-.549.365-.99.885-.99z" fill="#fff"/></svg><svg width="30" height="30" fill="none" id="pau-tg" y="1553"><path d="M15 0c8.285 0 15 6.716 15 15 0 8.285-6.715 15-15 15S0 23.285 0 15C0 6.716 6.715 0 15 0z" fill="#D8595A"/><path d="M6.3 15.192l3.917 1.482 1.517 4.942a.459.459 0 0 0 .732.223l2.183-1.804a.644.644 0 0 1 .794-.022l3.939 2.897c.27.2.655.05.723-.283L22.99 8.564a.464.464 0 0 0-.618-.532L6.296 14.317a.47.47 0 0 0 .004.875zm5.19.693l7.655-4.778c.137-.086.279.103.16.214l-6.317 5.952c-.222.21-.366.49-.406.794l-.215 1.616c-.029.216-.328.238-.387.029l-.828-2.948a.786.786 0 0 1 .337-.879z" fill="#fff"/></svg><svg width="30" height="30" fill="none" id="pau-vk" y="1583"><path d="M15 30c8.284 0 15-6.716 15-15 0-8.284-6.716-15-15-15C6.716 0 0 6.716 0 15c0 8.284 6.716 15 15 15z" fill="#D8595A"/><path fill-rule="evenodd" clip-rule="evenodd" d="M14.434 21.579h1.178s.355-.04.537-.235c.167-.18.161-.517.161-.517s-.023-1.58.71-1.812c.723-.23 1.652 1.526 2.635 2.202.744.51 1.31.398 1.31.398l2.63-.036s1.376-.085.723-1.167c-.053-.088-.38-.8-1.955-2.263-1.65-1.53-1.429-1.283.558-3.93 1.21-1.613 1.694-2.598 1.542-3.02-.144-.401-1.034-.295-1.034-.295l-2.961.018s-.22-.03-.383.068c-.159.095-.261.318-.261.318s-.469 1.248-1.094 2.309c-1.319 2.24-1.846 2.357-2.061 2.218-.502-.324-.377-1.302-.377-1.996 0-2.17.33-3.075-.64-3.31-.323-.077-.56-.129-1.383-.137-1.057-.01-1.95.003-2.457.251-.337.165-.597.533-.439.554.196.026.64.12.874.44.304.413.293 1.34.293 1.34s.174 2.555-.407 2.872c-.4.218-.947-.227-2.123-2.258C9.408 12.55 8.953 11.4 8.953 11.4a.88.88 0 0 0-.244-.33c-.19-.14-.455-.184-.455-.184l-2.815.018s-.422.012-.577.196c-.138.163-.011.501-.011.501s2.203 5.155 4.698 7.753c2.287 2.381 4.885 2.225 4.885 2.225z" fill="#fff"/></svg><svg width="38" height="32" id="se-icon-1" y="1613"><path fill="#fff" d="M6.706 6.069c0 .914-.751 1.655-1.676 1.655s-1.676-.741-1.676-1.655.751-1.655 1.676-1.655 1.676.741 1.676 1.655zM12.294 6.069c0 .914-.751 1.655-1.676 1.655s-1.676-.741-1.676-1.655.751-1.655 1.676-1.655 1.676.741 1.676 1.655zM17.882 6.069c0 .914-.751 1.655-1.676 1.655s-1.676-.741-1.676-1.655.751-1.655 1.676-1.655 1.676.741 1.676 1.655z"/><path fill="#fff" d="M35 2a1 1 0 0 1 1 1v26a1 1 0 0 1-1 1H3a1 1 0 0 1-1-1V3a1 1 0 0 1 1-1h32zM3 0a3 3 0 0 0-3 3v26a3 3 0 0 0 3 3h32a3 3 0 0 0 3-3V3a3 3 0 0 0-3-3H3z"/><path fill="#fff" d="M.95 9.931h36.1v2.207H.95V9.931z"/></svg><svg width="20" height="32" id="se-icon-2" y="1645"><path fill="#fff" d="M10.936 27.928c0 .696-.572 1.261-1.277 1.261s-1.277-.565-1.277-1.261.572-1.261 1.277-1.261 1.277.565 1.277 1.261z"/><path fill="#fff" d="M17.524 1.524c.421 0 .762.341.762.762v27.429a.762.762 0 0 1-.762.762H2.286a.762.762 0 0 1-.762-.762V2.286c0-.421.341-.762.762-.762h15.238zM2.286 0A2.286 2.286 0 0 0 0 2.286v27.429a2.286 2.286 0 0 0 2.286 2.286h15.238a2.286 2.286 0 0 0 2.286-2.286V2.286A2.286 2.286 0 0 0 17.524 0H2.286z"/><path fill="#fff" d="M1.524 23.619h17.524v1.524H1.524v-1.524zM1.524 3.048h17.524v1.524H1.524V3.048z"/></svg><svg width="38" height="32" id="se-icon-3" y="1677"><path fill="#fff" d="M35 2a1 1 0 0 1 1 1v20a1 1 0 0 1-1 1H3a1 1 0 0 1-1-1V3a1 1 0 0 1 1-1h32zM3 0a3 3 0 0 0-3 3v20a3 3 0 0 0 3 3h32a3 3 0 0 0 3-3V3a3 3 0 0 0-3-3H3zM7 30h24v2H7v-2z"/><path fill="#fff" d="M9 11h4v1H9v-1zM18 26h2v6h-2v-6zM8.293 8L5.647 5.354l.707-.707 3.354 3.354-3.354 3.354-.707-.707 2.646-2.646z"/></svg><svg width="11" height="32" id="sl-icon-l" y="1709"><path fill="none" stroke="#fff" stroke-width=".696" d="M10.435 31.304L.696 16 10.435.696"/></svg><svg width="11" height="32" id="sl-icon-r" y="1741"><path fill="none" stroke="#fff" stroke-width=".615" d="M.615.615L10.695 16 .615 31.385"/></svg><svg width="131" height="131" fill="none" id="success" y="1773"><path d="M65.5 131c36.175 0 65.5-29.325 65.5-65.5S101.675 0 65.5 0 0 29.325 0 65.5 29.325 131 65.5 131z" fill="#6FC17C"/><path fill-rule="evenodd" clip-rule="evenodd" d="M100.556 38.179a1.5 1.5 0 0 1 .125 2.118l-41.92 47.16a1.5 1.5 0 0 1-2.058.174l-26.2-20.96a1.5 1.5 0 1 1 1.874-2.342l25.088 20.07 40.974-46.096a1.5 1.5 0 0 1 2.118-.124z" fill="#fff"/></svg><svg width="18" height="10" fill="none" id="up" y="1904"><path d="M1 9l8-8 8 8" stroke="#B7B7B7"/></svg></svg>
